M48
; DRILL file {KiCad 6.0.10-1.fc37} date Mon 09 Jan 2023 06:29:53 AM PST
; FORMAT={-:-/ absolute / inch / decimal}
; #@! TF.CreationDate,2023-01-09T06:29:53-08:00
; #@! TF.GenerationSoftware,Kicad,Pcbnew,6.0.10-1.fc37
; #@! TF.FileFunction,Plated,1,4,PTH
FMAT,2
INCH
; #@! TA.AperFunction,Plated,PTH,ViaDrill
T1C0.0079
; #@! TA.AperFunction,Plated,PTH,ViaDrill
T2C0.0157
; #@! TA.AperFunction,Plated,PTH,ViaDrill
T3C0.0197
; #@! TA.AperFunction,Plated,PTH,ComponentDrill
T4C0.0197
; #@! TA.AperFunction,Plated,PTH,ComponentDrill
T5C0.0315
%
G90
G05
T1
X4.111Y-2.677
X4.132Y-2.196
X4.134Y-2.29
X4.188Y-2.116
X4.206Y-2.69
X4.24Y-2.631
X4.248Y-2.416
X4.248Y-2.571
X4.248Y-2.815
X4.269Y-2.821
X4.291Y-2.823
X4.299Y-2.597
X4.3Y-2.146
X4.3Y-2.741
X4.335Y-2.875
X4.363Y-2.885
X4.386Y-2.885
X4.394Y-2.363
X4.397Y-2.655
X4.404Y-2.558
X4.437Y-2.555
X4.465Y-2.666
X4.529Y-2.56
X4.548Y-2.631
X4.573Y-2.764
X4.593Y-2.656
X4.61Y-3.048
X4.647Y-2.88
X4.656Y-2.556
X4.689Y-2.554
X4.697Y-3.048
X4.72Y-2.557
X4.733Y-2.881
X4.749Y-2.554
X4.935Y-2.43
X4.943Y-2.292
X4.947Y-2.223
X4.948Y-2.885
X4.967Y-2.465
X4.995Y-2.972
X5.007Y-2.661
X5.039Y-2.28
X5.062Y-2.85
X5.08Y-2.241
X5.093Y-2.366
X5.093Y-2.404
X5.094Y-2.324
T2
X4.041Y-2.714
X4.061Y-2.318
X4.096Y-2.111
X4.121Y-2.487
X4.209Y-2.026
X4.28Y-2.308
X4.295Y-2.529
X4.383Y-2.797
X4.384Y-2.745
X4.436Y-2.746
X4.439Y-2.798
X4.867Y-3.092
X4.905Y-2.986
X4.935Y-3.093
T3
X5.369Y-2.246
T4
X3.9634Y-3.043
X3.9634Y-3.165
X3.968Y-2.562
X3.969Y-2.23
X3.969Y-2.453
X3.969Y-2.669
X3.97Y-2.344
X3.97Y-2.783
X3.971Y-2.145
X3.973Y-2.895
X3.995Y-2.002
X4.046Y-3.043
X4.046Y-3.165
X4.079Y-2.002
X4.1286Y-3.043
X4.1286Y-3.165
X4.2111Y-3.043
X4.2111Y-3.165
X4.2937Y-3.043
X4.2937Y-3.165
X4.3763Y-3.043
X4.3763Y-3.165
X4.4589Y-3.043
X4.4589Y-3.165
X4.5414Y-3.043
X4.5414Y-3.165
X4.624Y-2.973
X4.632Y-3.139
X4.711Y-2.972
X4.7201Y-3.141
X4.911Y-2.031
X4.911Y-2.147
X5.036Y-3.168
X5.125Y-3.17
X5.426Y-3.13
X5.518Y-3.13
T5
G00X5.2977Y-2.5857
M15
G01X5.3292Y-2.5857
M16
G05
G00X5.2977Y-2.9263
M15
G01X5.3292Y-2.9263
M16
G05
G00X5.467Y-2.5857
M15
G01X5.4906Y-2.5857
M16
G05
G00X5.467Y-2.9263
M15
G01X5.4906Y-2.9263
M16
G05
T0
M30
