%TF.GenerationSoftware,KiCad,Pcbnew,6.0.10-1.fc37*%
%TF.CreationDate,2023-01-09T06:29:55-08:00*%
%TF.ProjectId,data_logger_esp32c3,64617461-5f6c-46f6-9767-65725f657370,rev?*%
%TF.SameCoordinates,Original*%
%TF.FileFunction,Soldermask,Bot*%
%TF.FilePolarity,Negative*%
%FSLAX46Y46*%
G04 Gerber Fmt 4.6, Leading zero omitted, Abs format (unit mm)*
G04 Created by KiCad (PCBNEW 6.0.10-1.fc37) date 2023-01-09 06:29:55*
%MOMM*%
%LPD*%
G01*
G04 APERTURE LIST*
%TA.AperFunction,Profile*%
%ADD10C,0.100000*%
%TD*%
%ADD11R,1.000000X1.000000*%
%ADD12C,0.750011*%
%ADD13O,1.999996X1.199998*%
%ADD14O,1.799996X1.199998*%
G04 APERTURE END LIST*
D10*
X98856800Y-49606200D02*
X142138400Y-49606200D01*
X142138400Y-49606200D02*
X142138400Y-81864200D01*
X142138400Y-81864200D02*
X98856800Y-81864200D01*
X98856800Y-81864200D02*
X98856800Y-49606200D01*
D11*
%TO.C,IO13*%
X111157656Y-77292200D03*
%TD*%
%TO.C,DC-1*%
X140157200Y-79502000D03*
%TD*%
%TO.C,DC+1*%
X137820400Y-79502000D03*
%TD*%
%TO.C,IO11*%
X106963028Y-77292200D03*
%TD*%
%TO.C,IO5*%
X111157656Y-80391000D03*
%TD*%
%TO.C,VIN1*%
X130175000Y-80518000D03*
%TD*%
%TO.C,IO15*%
X115352286Y-77292200D03*
%TD*%
%TO.C,A2N1*%
X101473000Y-50850800D03*
%TD*%
%TO.C,A3N1*%
X100812600Y-56642000D03*
%TD*%
%TO.C,SDA1*%
X119890000Y-79781400D03*
%TD*%
%TO.C,TX0*%
X124739400Y-51587400D03*
%TD*%
%TO.C,IO0*%
X100671086Y-80391000D03*
%TD*%
%TO.C,IO1*%
X102768400Y-80391000D03*
%TD*%
%TO.C,A0N1*%
X100812600Y-62306200D03*
%TD*%
%TO.C,3V3*%
X127914400Y-80467200D03*
%TD*%
%TO.C,IO6*%
X113254970Y-80391000D03*
%TD*%
%TO.C,IO3*%
X106963028Y-80391000D03*
%TD*%
%TO.C,A3P1*%
X100863400Y-54483000D03*
%TD*%
%TO.C,A4P1*%
X100787200Y-65074800D03*
%TD*%
%TO.C,RX0*%
X124739400Y-54533800D03*
%TD*%
%TO.C,A4N1*%
X100812600Y-67792600D03*
%TD*%
%TO.C,IO10*%
X104865714Y-77292200D03*
%TD*%
D12*
%TO.C,USB-C1*%
X135461756Y-72902318D03*
X135461756Y-67102482D03*
D13*
X134961630Y-74327512D03*
X134961630Y-65677288D03*
D14*
X139161520Y-65677288D03*
X139161520Y-74327512D03*
%TD*%
D11*
%TO.C,I2SN1*%
X100914200Y-73533000D03*
%TD*%
%TO.C,I2SP1*%
X100838000Y-70688200D03*
%TD*%
%TO.C,NRESET1*%
X119659400Y-75488800D03*
%TD*%
%TO.C,SCL1*%
X117652800Y-79730600D03*
%TD*%
%TO.C,IO9*%
X102768400Y-77292200D03*
%TD*%
%TO.C,A0P1*%
X100838000Y-59537600D03*
%TD*%
%TO.C,IO8*%
X100671086Y-77292200D03*
%TD*%
%TO.C,IO2*%
X104865714Y-80391000D03*
%TD*%
%TO.C,IO4*%
X109060342Y-80391000D03*
%TD*%
%TO.C,A2P1*%
X103606600Y-50850800D03*
%TD*%
%TO.C,IO14*%
X113254970Y-77292200D03*
%TD*%
%TO.C,NINT1*%
X117449600Y-75514200D03*
%TD*%
%TO.C,IO7*%
X115352286Y-80391000D03*
%TD*%
%TO.C,IO12*%
X109060342Y-77292200D03*
%TD*%
M02*
