%TF.GenerationSoftware,KiCad,Pcbnew,6.0.10-1.fc37*%
%TF.CreationDate,2023-01-09T06:29:54-08:00*%
%TF.ProjectId,data_logger_esp32c3,64617461-5f6c-46f6-9767-65725f657370,rev?*%
%TF.SameCoordinates,Original*%
%TF.FileFunction,Copper,L4,Bot*%
%TF.FilePolarity,Positive*%
%FSLAX46Y46*%
G04 Gerber Fmt 4.6, Leading zero omitted, Abs format (unit mm)*
G04 Created by KiCad (PCBNEW 6.0.10-1.fc37) date 2023-01-09 06:29:54*
%MOMM*%
%LPD*%
G01*
G04 APERTURE LIST*
%TA.AperFunction,Profile*%
%ADD10C,0.100000*%
%TD*%
%TA.AperFunction,ComponentPad*%
%ADD11R,1.000000X1.000000*%
%TD*%
%TA.AperFunction,ComponentPad*%
%ADD12O,1.999996X1.199998*%
%TD*%
%TA.AperFunction,ComponentPad*%
%ADD13O,1.799996X1.199998*%
%TD*%
%TA.AperFunction,ViaPad*%
%ADD14C,0.400000*%
%TD*%
%TA.AperFunction,ViaPad*%
%ADD15C,1.000000*%
%TD*%
%TA.AperFunction,ViaPad*%
%ADD16C,0.800000*%
%TD*%
%TA.AperFunction,Conductor*%
%ADD17C,0.150000*%
%TD*%
G04 APERTURE END LIST*
D10*
X98856800Y-49606200D02*
X142138400Y-49606200D01*
X142138400Y-49606200D02*
X142138400Y-81864200D01*
X142138400Y-81864200D02*
X98856800Y-81864200D01*
X98856800Y-81864200D02*
X98856800Y-49606200D01*
D11*
%TO.P,IO13,1,1*%
%TO.N,Net-(IO13-Pad1)*%
X111157656Y-77292200D03*
%TD*%
%TO.P,DC-1,1,1*%
%TO.N,GND*%
X140157200Y-79502000D03*
%TD*%
%TO.P,DC+1,1,1*%
%TO.N,Net-(D1-Pad1)*%
X137820400Y-79502000D03*
%TD*%
%TO.P,IO11,1,1*%
%TO.N,Net-(IO11-Pad1)*%
X106963028Y-77292200D03*
%TD*%
%TO.P,IO5,1,1*%
%TO.N,Net-(IO5-Pad1)*%
X111157656Y-80391000D03*
%TD*%
%TO.P,VIN1,1,1*%
%TO.N,Net-(C4-Pad1)*%
X130175000Y-80518000D03*
%TD*%
%TO.P,IO15,1,1*%
%TO.N,Net-(IO15-Pad1)*%
X115352286Y-77292200D03*
%TD*%
%TO.P,A2N1,1,1*%
%TO.N,GND*%
X101473000Y-50850800D03*
%TD*%
%TO.P,A3N1,1,1*%
%TO.N,GND*%
X100812600Y-56642000D03*
%TD*%
%TO.P,SDA1,1,1*%
%TO.N,I2C_SDA*%
X119890000Y-79781400D03*
%TD*%
%TO.P,TX0,1,1*%
%TO.N,Net-(TX0-Pad1)*%
X124739400Y-51587400D03*
%TD*%
%TO.P,IO0,1,1*%
%TO.N,Net-(IO0-Pad1)*%
X100671086Y-80391000D03*
%TD*%
%TO.P,IO1,1,1*%
%TO.N,Net-(IO1-Pad1)*%
X102768400Y-80391000D03*
%TD*%
%TO.P,A0N1,1,1*%
%TO.N,GND*%
X100812600Y-62306200D03*
%TD*%
%TO.P,3V3,1,1*%
%TO.N,+3V3*%
X127914400Y-80467200D03*
%TD*%
%TO.P,IO6,1,1*%
%TO.N,Net-(IO6-Pad1)*%
X113254970Y-80391000D03*
%TD*%
%TO.P,IO3,1,1*%
%TO.N,Net-(IO3-Pad1)*%
X106963028Y-80391000D03*
%TD*%
%TO.P,A3P1,1,1*%
%TO.N,Net-(A3P1-Pad1)*%
X100863400Y-54483000D03*
%TD*%
%TO.P,A4P1,1,1*%
%TO.N,Net-(A4P1-Pad1)*%
X100787200Y-65074800D03*
%TD*%
%TO.P,RX0,1,1*%
%TO.N,Net-(RX0-Pad1)*%
X124739400Y-54533800D03*
%TD*%
%TO.P,A4N1,1,1*%
%TO.N,GND*%
X100812600Y-67792600D03*
%TD*%
%TO.P,IO10,1,1*%
%TO.N,Net-(IO10-Pad1)*%
X104865714Y-77292200D03*
%TD*%
D12*
%TO.P,USB-C1,0,SH*%
%TO.N,GND*%
X134961630Y-74327512D03*
%TO.P,USB-C1,1,SH*%
X134961630Y-65677288D03*
D13*
%TO.P,USB-C1,2,SH*%
X139161520Y-65677288D03*
%TO.P,USB-C1,3,SH*%
X139161520Y-74327512D03*
%TD*%
D11*
%TO.P,I2SN1,1,1*%
%TO.N,GND*%
X100914200Y-73533000D03*
%TD*%
%TO.P,I2SP1,1,1*%
%TO.N,Net-(I2SP1-Pad1)*%
X100838000Y-70688200D03*
%TD*%
%TO.P,NRESET1,1,1*%
%TO.N,NRESET*%
X119659400Y-75488800D03*
%TD*%
%TO.P,SCL1,1,1*%
%TO.N,I2C_SCL*%
X117652800Y-79730600D03*
%TD*%
%TO.P,IO9,1,1*%
%TO.N,Net-(IO9-Pad1)*%
X102768400Y-77292200D03*
%TD*%
%TO.P,A0P1,1,1*%
%TO.N,Net-(A0P1-Pad1)*%
X100838000Y-59537600D03*
%TD*%
%TO.P,IO8,1,1*%
%TO.N,Net-(IO8-Pad1)*%
X100671086Y-77292200D03*
%TD*%
%TO.P,IO2,1,1*%
%TO.N,Net-(IO2-Pad1)*%
X104865714Y-80391000D03*
%TD*%
%TO.P,IO4,1,1*%
%TO.N,Net-(IO4-Pad1)*%
X109060342Y-80391000D03*
%TD*%
%TO.P,A2P1,1,1*%
%TO.N,Net-(A2P1-Pad1)*%
X103606600Y-50850800D03*
%TD*%
%TO.P,IO14,1,1*%
%TO.N,Net-(IO14-Pad1)*%
X113254970Y-77292200D03*
%TD*%
%TO.P,NINT1,1,1*%
%TO.N,NINT*%
X117449600Y-75514200D03*
%TD*%
%TO.P,IO7,1,1*%
%TO.N,Net-(IO7-Pad1)*%
X115352286Y-80391000D03*
%TD*%
%TO.P,IO12,1,1*%
%TO.N,Net-(IO12-Pad1)*%
X109060342Y-77292200D03*
%TD*%
D14*
%TO.N,GND*%
X105003600Y-58166000D03*
D15*
X136372600Y-57048400D03*
D14*
X106375200Y-53746400D03*
X107899200Y-65303400D03*
X104952800Y-55778400D03*
X125349000Y-61722000D03*
X106832400Y-68326000D03*
X109194600Y-65963800D03*
X104419400Y-67995800D03*
X127990600Y-57912000D03*
X128574800Y-72390000D03*
D16*
X111328200Y-71043800D03*
X111353600Y-69723000D03*
D14*
X126873000Y-75488800D03*
X125679200Y-73279000D03*
D16*
X112674400Y-69748400D03*
X112750600Y-71069200D03*
D14*
X125552200Y-58216800D03*
X129032000Y-56921400D03*
X127177800Y-67589400D03*
D16*
%TO.N,+3V3*%
X106908600Y-51460400D03*
D14*
X116154200Y-70205600D03*
D16*
X102641400Y-68935600D03*
D14*
X118033800Y-73152000D03*
X117094000Y-77419200D03*
X107899200Y-71501000D03*
D16*
X124587000Y-75844400D03*
X104038400Y-53619400D03*
X104673400Y-63169800D03*
X123621800Y-78536800D03*
X103149400Y-58877200D03*
D14*
X119303800Y-77419200D03*
D16*
X108712000Y-58623200D03*
X125349006Y-78562194D03*
D14*
X125653800Y-56464200D03*
X120218200Y-73177400D03*
D16*
X109093000Y-64236600D03*
D14*
%TO.N,ADC1_CH0*%
X111861600Y-64973200D03*
X107899200Y-61366400D03*
%TO.N,ADC1_CH2*%
X109220000Y-54508400D03*
X111607600Y-60020200D03*
%TO.N,ADC1_CH4*%
X107696000Y-66827400D03*
X115519200Y-66827400D03*
%TO.N,I2S*%
X116662200Y-67462400D03*
X111683800Y-67437000D03*
%TO.N,CS*%
X118262400Y-64922400D03*
X129387600Y-59029600D03*
%TO.N,DI*%
X119100600Y-64871600D03*
X129362200Y-60096400D03*
%TO.N,SCLK*%
X119888000Y-64947800D03*
X129362200Y-61061600D03*
%TO.N,DO*%
X126161800Y-62611000D03*
X120624600Y-64871600D03*
%TO.N,I2C_SCL*%
X112699800Y-64897000D03*
%TO.N,I2C_SDA*%
X115036600Y-65024000D03*
%TO.N,Net-(IO3-Pad1)*%
X109220000Y-69621400D03*
%TO.N,Net-(IO4-Pad1)*%
X108432600Y-71653400D03*
%TO.N,Net-(IO5-Pad1)*%
X108991400Y-71704200D03*
%TO.N,Net-(IO6-Pad1)*%
X110109000Y-73025000D03*
%TO.N,Net-(IO7-Pad1)*%
X110820200Y-73279000D03*
%TO.N,NRESET*%
X113411000Y-67716400D03*
%TO.N,NINT*%
X111404400Y-73279000D03*
%TD*%
D17*
%TO.N,ADC1_CH0*%
X108254800Y-61366400D02*
X111861600Y-64973200D01*
X107899200Y-61366400D02*
X108254800Y-61366400D01*
%TO.N,ADC1_CH2*%
X111607600Y-56896000D02*
X111607600Y-60020200D01*
X109220000Y-54508400D02*
X111607600Y-56896000D01*
%TO.N,ADC1_CH4*%
X115519200Y-66827400D02*
X107696000Y-66827400D01*
%TO.N,I2S*%
X116491700Y-67291900D02*
X116662200Y-67462400D01*
X111828900Y-67291900D02*
X116491700Y-67291900D01*
X111683800Y-67437000D02*
X111828900Y-67291900D01*
%TO.N,CS*%
X129260600Y-59156600D02*
X124536200Y-59156600D01*
X118262400Y-64820800D02*
X118262400Y-64922400D01*
X118287800Y-64795400D02*
X118262400Y-64820800D01*
X123926600Y-59156600D02*
X118287800Y-64795400D01*
X129387600Y-59029600D02*
X129260600Y-59156600D01*
X124536200Y-59156600D02*
X123926600Y-59156600D01*
%TO.N,DI*%
X119100600Y-64871600D02*
X123875800Y-60096400D01*
X123875800Y-60096400D02*
X129362200Y-60096400D01*
%TO.N,SCLK*%
X119888000Y-64820800D02*
X123647200Y-61061600D01*
X119888000Y-64947800D02*
X119888000Y-64820800D01*
X123647200Y-61061600D02*
X129362200Y-61061600D01*
%TO.N,DO*%
X120624600Y-64871600D02*
X122885200Y-62611000D01*
X122885200Y-62611000D02*
X126161800Y-62611000D01*
%TO.N,I2C_SCL*%
X119202200Y-78181200D02*
X120421400Y-78181200D01*
X120802400Y-77800200D02*
X120802400Y-72161400D01*
X120802400Y-70561200D02*
X117144800Y-66903600D01*
X113639600Y-65836800D02*
X112699800Y-64897000D01*
X116078000Y-65836800D02*
X113766600Y-65836800D01*
X120802400Y-72161400D02*
X120802400Y-70561200D01*
X117144800Y-66903600D02*
X116078000Y-65836800D01*
X113766600Y-65836800D02*
X113639600Y-65836800D01*
X117652800Y-79730600D02*
X119202200Y-78181200D01*
X120421400Y-78181200D02*
X120802400Y-77800200D01*
%TO.N,I2C_SDA*%
X121285000Y-70231000D02*
X116078000Y-65024000D01*
X119890000Y-79781400D02*
X121285000Y-78386400D01*
X121285000Y-78386400D02*
X121285000Y-70231000D01*
X116078000Y-65024000D02*
X115036600Y-65024000D01*
%TO.N,Net-(IO3-Pad1)*%
X107638028Y-79716000D02*
X107638028Y-71840162D01*
X106963028Y-80391000D02*
X107638028Y-79716000D01*
X109076866Y-69621400D02*
X109220000Y-69621400D01*
X107449300Y-71651434D02*
X107449300Y-71248966D01*
X107449300Y-71248966D02*
X109076866Y-69621400D01*
X107638028Y-71840162D02*
X107449300Y-71651434D01*
%TO.N,Net-(IO4-Pad1)*%
X109735342Y-73664590D02*
X108432600Y-72361848D01*
X108432600Y-72361848D02*
X108432600Y-71653400D01*
X109060342Y-80391000D02*
X109735342Y-79716000D01*
X109735342Y-79716000D02*
X109735342Y-73664590D01*
%TO.N,Net-(IO5-Pad1)*%
X110032800Y-73609200D02*
X109651800Y-73228200D01*
X109651800Y-73228200D02*
X108991400Y-72567800D01*
X111157656Y-80391000D02*
X110032800Y-79266144D01*
X110032800Y-79266144D02*
X110032800Y-73609200D01*
X108991400Y-72567800D02*
X108991400Y-71704200D01*
%TO.N,Net-(IO6-Pad1)*%
X113254970Y-80391000D02*
X111836200Y-78972230D01*
X110109000Y-73168134D02*
X110109000Y-73025000D01*
X111836200Y-78972230D02*
X111836200Y-74895334D01*
X111836200Y-74895334D02*
X110109000Y-73168134D01*
%TO.N,Net-(IO7-Pad1)*%
X113929970Y-76404904D02*
X110820200Y-73295134D01*
X113929970Y-78968684D02*
X113929970Y-76404904D01*
X110820200Y-73295134D02*
X110820200Y-73279000D01*
X115352286Y-80391000D02*
X113929970Y-78968684D01*
%TO.N,NRESET*%
X119009800Y-71765800D02*
X115112800Y-67868800D01*
X114960400Y-67716400D02*
X113411000Y-67716400D01*
X115112800Y-67868800D02*
X114960400Y-67716400D01*
X119659400Y-75488800D02*
X119009800Y-74839200D01*
X119009800Y-74839200D02*
X119009800Y-71765800D01*
%TO.N,NINT*%
X117449600Y-75514200D02*
X113639600Y-75514200D01*
X113639600Y-75514200D02*
X111404400Y-73279000D01*
%TD*%
%TA.AperFunction,Conductor*%
%TO.N,GND*%
G36*
X100413116Y-50134702D02*
G01*
X100459609Y-50188358D01*
X100470258Y-50254307D01*
X100465369Y-50299312D01*
X100465000Y-50306128D01*
X100465000Y-50578685D01*
X100469475Y-50593924D01*
X100470865Y-50595129D01*
X100478548Y-50596800D01*
X101601000Y-50596800D01*
X101669121Y-50616802D01*
X101715614Y-50670458D01*
X101727000Y-50722800D01*
X101727000Y-51840684D01*
X101731475Y-51855923D01*
X101732865Y-51857128D01*
X101740548Y-51858799D01*
X102017669Y-51858799D01*
X102024490Y-51858429D01*
X102075352Y-51852905D01*
X102090604Y-51849279D01*
X102211054Y-51804124D01*
X102226649Y-51795586D01*
X102328724Y-51719085D01*
X102341285Y-51706524D01*
X102417786Y-51604449D01*
X102428992Y-51583981D01*
X102479251Y-51533836D01*
X102548642Y-51518822D01*
X102615134Y-51543708D01*
X102650032Y-51583981D01*
X102652833Y-51589097D01*
X102655985Y-51597505D01*
X102661370Y-51604690D01*
X102661371Y-51604691D01*
X102743339Y-51714061D01*
X102859895Y-51801415D01*
X102996284Y-51852545D01*
X103058466Y-51859300D01*
X104154734Y-51859300D01*
X104216916Y-51852545D01*
X104353305Y-51801415D01*
X104469861Y-51714061D01*
X104557215Y-51597505D01*
X104608345Y-51461116D01*
X104608423Y-51460400D01*
X105995096Y-51460400D01*
X105995786Y-51466965D01*
X106010262Y-51604692D01*
X106015058Y-51650328D01*
X106074073Y-51831956D01*
X106077376Y-51837678D01*
X106077377Y-51837679D01*
X106086988Y-51854325D01*
X106169560Y-51997344D01*
X106297347Y-52139266D01*
X106451848Y-52251518D01*
X106457876Y-52254202D01*
X106457878Y-52254203D01*
X106620281Y-52326509D01*
X106626312Y-52329194D01*
X106719712Y-52349047D01*
X106806656Y-52367528D01*
X106806661Y-52367528D01*
X106813113Y-52368900D01*
X107004087Y-52368900D01*
X107010539Y-52367528D01*
X107010544Y-52367528D01*
X107097487Y-52349047D01*
X107190888Y-52329194D01*
X107196919Y-52326509D01*
X107359322Y-52254203D01*
X107359324Y-52254202D01*
X107365352Y-52251518D01*
X107519853Y-52139266D01*
X107523213Y-52135534D01*
X123730900Y-52135534D01*
X123737655Y-52197716D01*
X123788785Y-52334105D01*
X123876139Y-52450661D01*
X123992695Y-52538015D01*
X124129084Y-52589145D01*
X124191266Y-52595900D01*
X125287534Y-52595900D01*
X125349716Y-52589145D01*
X125486105Y-52538015D01*
X125602661Y-52450661D01*
X125690015Y-52334105D01*
X125741145Y-52197716D01*
X125747900Y-52135534D01*
X125747900Y-51039266D01*
X125741145Y-50977084D01*
X125690015Y-50840695D01*
X125602661Y-50724139D01*
X125486105Y-50636785D01*
X125349716Y-50585655D01*
X125287534Y-50578900D01*
X124191266Y-50578900D01*
X124129084Y-50585655D01*
X123992695Y-50636785D01*
X123876139Y-50724139D01*
X123788785Y-50840695D01*
X123737655Y-50977084D01*
X123730900Y-51039266D01*
X123730900Y-52135534D01*
X107523213Y-52135534D01*
X107647640Y-51997344D01*
X107730212Y-51854325D01*
X107739823Y-51837679D01*
X107739824Y-51837678D01*
X107743127Y-51831956D01*
X107802142Y-51650328D01*
X107806939Y-51604692D01*
X107821414Y-51466965D01*
X107822104Y-51460400D01*
X107816001Y-51402331D01*
X107802832Y-51277035D01*
X107802832Y-51277033D01*
X107802142Y-51270472D01*
X107743127Y-51088844D01*
X107647640Y-50923456D01*
X107566652Y-50833509D01*
X107524275Y-50786445D01*
X107524274Y-50786444D01*
X107519853Y-50781534D01*
X107365352Y-50669282D01*
X107359324Y-50666598D01*
X107359322Y-50666597D01*
X107196919Y-50594291D01*
X107196918Y-50594291D01*
X107190888Y-50591606D01*
X107097487Y-50571753D01*
X107010544Y-50553272D01*
X107010539Y-50553272D01*
X107004087Y-50551900D01*
X106813113Y-50551900D01*
X106806661Y-50553272D01*
X106806656Y-50553272D01*
X106719713Y-50571753D01*
X106626312Y-50591606D01*
X106620282Y-50594291D01*
X106620281Y-50594291D01*
X106457878Y-50666597D01*
X106457876Y-50666598D01*
X106451848Y-50669282D01*
X106297347Y-50781534D01*
X106292926Y-50786444D01*
X106292925Y-50786445D01*
X106250549Y-50833509D01*
X106169560Y-50923456D01*
X106074073Y-51088844D01*
X106015058Y-51270472D01*
X106014368Y-51277033D01*
X106014368Y-51277035D01*
X106001199Y-51402331D01*
X105995096Y-51460400D01*
X104608423Y-51460400D01*
X104615100Y-51398934D01*
X104615100Y-50302666D01*
X104609847Y-50254307D01*
X104622375Y-50184425D01*
X104670696Y-50132409D01*
X104735110Y-50114700D01*
X141503900Y-50114700D01*
X141572021Y-50134702D01*
X141618514Y-50188358D01*
X141629900Y-50240700D01*
X141629900Y-81229700D01*
X141609898Y-81297821D01*
X141556242Y-81344314D01*
X141503900Y-81355700D01*
X131273301Y-81355700D01*
X131205180Y-81335698D01*
X131158687Y-81282042D01*
X131148583Y-81211768D01*
X131155319Y-81185471D01*
X131173971Y-81135718D01*
X131173973Y-81135712D01*
X131176745Y-81128316D01*
X131183500Y-81066134D01*
X131183500Y-80050134D01*
X136811900Y-80050134D01*
X136818655Y-80112316D01*
X136869785Y-80248705D01*
X136957139Y-80365261D01*
X137073695Y-80452615D01*
X137210084Y-80503745D01*
X137272266Y-80510500D01*
X138368534Y-80510500D01*
X138430716Y-80503745D01*
X138567105Y-80452615D01*
X138683661Y-80365261D01*
X138771015Y-80248705D01*
X138822145Y-80112316D01*
X138828900Y-80050134D01*
X138828900Y-80046669D01*
X139149201Y-80046669D01*
X139149571Y-80053490D01*
X139155095Y-80104352D01*
X139158721Y-80119604D01*
X139203876Y-80240054D01*
X139212414Y-80255649D01*
X139288915Y-80357724D01*
X139301476Y-80370285D01*
X139403551Y-80446786D01*
X139419146Y-80455324D01*
X139539594Y-80500478D01*
X139554849Y-80504105D01*
X139605714Y-80509631D01*
X139612528Y-80510000D01*
X139885085Y-80510000D01*
X139900324Y-80505525D01*
X139901529Y-80504135D01*
X139903200Y-80496452D01*
X139903200Y-80491884D01*
X140411200Y-80491884D01*
X140415675Y-80507123D01*
X140417065Y-80508328D01*
X140424748Y-80509999D01*
X140701869Y-80509999D01*
X140708690Y-80509629D01*
X140759552Y-80504105D01*
X140774804Y-80500479D01*
X140895254Y-80455324D01*
X140910849Y-80446786D01*
X141012924Y-80370285D01*
X141025485Y-80357724D01*
X141101986Y-80255649D01*
X141110524Y-80240054D01*
X141155678Y-80119606D01*
X141159305Y-80104351D01*
X141164831Y-80053486D01*
X141165200Y-80046672D01*
X141165200Y-79774115D01*
X141160725Y-79758876D01*
X141159335Y-79757671D01*
X141151652Y-79756000D01*
X140429315Y-79756000D01*
X140414076Y-79760475D01*
X140412871Y-79761865D01*
X140411200Y-79769548D01*
X140411200Y-80491884D01*
X139903200Y-80491884D01*
X139903200Y-79774115D01*
X139898725Y-79758876D01*
X139897335Y-79757671D01*
X139889652Y-79756000D01*
X139167316Y-79756000D01*
X139152077Y-79760475D01*
X139150872Y-79761865D01*
X139149201Y-79769548D01*
X139149201Y-80046669D01*
X138828900Y-80046669D01*
X138828900Y-79229885D01*
X139149200Y-79229885D01*
X139153675Y-79245124D01*
X139155065Y-79246329D01*
X139162748Y-79248000D01*
X139885085Y-79248000D01*
X139900324Y-79243525D01*
X139901529Y-79242135D01*
X139903200Y-79234452D01*
X139903200Y-79229885D01*
X140411200Y-79229885D01*
X140415675Y-79245124D01*
X140417065Y-79246329D01*
X140424748Y-79248000D01*
X141147084Y-79248000D01*
X141162323Y-79243525D01*
X141163528Y-79242135D01*
X141165199Y-79234452D01*
X141165199Y-78957331D01*
X141164829Y-78950510D01*
X141159305Y-78899648D01*
X141155679Y-78884396D01*
X141110524Y-78763946D01*
X141101986Y-78748351D01*
X141025485Y-78646276D01*
X141012924Y-78633715D01*
X140910849Y-78557214D01*
X140895254Y-78548676D01*
X140774806Y-78503522D01*
X140759551Y-78499895D01*
X140708686Y-78494369D01*
X140701872Y-78494000D01*
X140429315Y-78494000D01*
X140414076Y-78498475D01*
X140412871Y-78499865D01*
X140411200Y-78507548D01*
X140411200Y-79229885D01*
X139903200Y-79229885D01*
X139903200Y-78512116D01*
X139898725Y-78496877D01*
X139897335Y-78495672D01*
X139889652Y-78494001D01*
X139612531Y-78494001D01*
X139605710Y-78494371D01*
X139554848Y-78499895D01*
X139539596Y-78503521D01*
X139419146Y-78548676D01*
X139403551Y-78557214D01*
X139301476Y-78633715D01*
X139288915Y-78646276D01*
X139212414Y-78748351D01*
X139203876Y-78763946D01*
X139158722Y-78884394D01*
X139155095Y-78899649D01*
X139149569Y-78950514D01*
X139149200Y-78957328D01*
X139149200Y-79229885D01*
X138828900Y-79229885D01*
X138828900Y-78953866D01*
X138822145Y-78891684D01*
X138771015Y-78755295D01*
X138683661Y-78638739D01*
X138567105Y-78551385D01*
X138430716Y-78500255D01*
X138368534Y-78493500D01*
X137272266Y-78493500D01*
X137210084Y-78500255D01*
X137073695Y-78551385D01*
X136957139Y-78638739D01*
X136869785Y-78755295D01*
X136818655Y-78891684D01*
X136811900Y-78953866D01*
X136811900Y-80050134D01*
X131183500Y-80050134D01*
X131183500Y-79969866D01*
X131176745Y-79907684D01*
X131125615Y-79771295D01*
X131038261Y-79654739D01*
X130921705Y-79567385D01*
X130785316Y-79516255D01*
X130723134Y-79509500D01*
X129626866Y-79509500D01*
X129564684Y-79516255D01*
X129428295Y-79567385D01*
X129311739Y-79654739D01*
X129224385Y-79771295D01*
X129173255Y-79907684D01*
X129172402Y-79915540D01*
X129170575Y-79923222D01*
X129168509Y-79922731D01*
X129145476Y-79978155D01*
X129087111Y-80018578D01*
X129016157Y-80021030D01*
X128955141Y-79984731D01*
X128923435Y-79921208D01*
X128922196Y-79912587D01*
X128921664Y-79907684D01*
X128920860Y-79900285D01*
X128916999Y-79864740D01*
X128916998Y-79864736D01*
X128916145Y-79856884D01*
X128865015Y-79720495D01*
X128777661Y-79603939D01*
X128661105Y-79516585D01*
X128524716Y-79465455D01*
X128462534Y-79458700D01*
X127366266Y-79458700D01*
X127304084Y-79465455D01*
X127167695Y-79516585D01*
X127051139Y-79603939D01*
X126963785Y-79720495D01*
X126912655Y-79856884D01*
X126905900Y-79919066D01*
X126905900Y-81015334D01*
X126912655Y-81077516D01*
X126915427Y-81084912D01*
X126915429Y-81084918D01*
X126953125Y-81185471D01*
X126958308Y-81256278D01*
X126924387Y-81318647D01*
X126862132Y-81352776D01*
X126835143Y-81355700D01*
X116391413Y-81355700D01*
X116323292Y-81335698D01*
X116276799Y-81282042D01*
X116266695Y-81211768D01*
X116290587Y-81154136D01*
X116302901Y-81137705D01*
X116354031Y-81001316D01*
X116360786Y-80939134D01*
X116360786Y-79842866D01*
X116354031Y-79780684D01*
X116302901Y-79644295D01*
X116215547Y-79527739D01*
X116098991Y-79440385D01*
X115962602Y-79389255D01*
X115900420Y-79382500D01*
X115221171Y-79382500D01*
X115153050Y-79362498D01*
X115132076Y-79345596D01*
X114550375Y-78763896D01*
X114516350Y-78701583D01*
X114513470Y-78674800D01*
X114513470Y-78390083D01*
X114533472Y-78321962D01*
X114587128Y-78275469D01*
X114657402Y-78265365D01*
X114683699Y-78272101D01*
X114734568Y-78291171D01*
X114734574Y-78291173D01*
X114741970Y-78293945D01*
X114804152Y-78300700D01*
X115900420Y-78300700D01*
X115962602Y-78293945D01*
X116098991Y-78242815D01*
X116215547Y-78155461D01*
X116302901Y-78038905D01*
X116317126Y-78000960D01*
X116344735Y-77927314D01*
X116387377Y-77870550D01*
X116453938Y-77845850D01*
X116523287Y-77861058D01*
X116553660Y-77885626D01*
X116553730Y-77885549D01*
X116680565Y-78000960D01*
X116831268Y-78082785D01*
X116997139Y-78126301D01*
X117084586Y-78127674D01*
X117161003Y-78128875D01*
X117161006Y-78128875D01*
X117168602Y-78128994D01*
X117176006Y-78127298D01*
X117176008Y-78127298D01*
X117238846Y-78112906D01*
X117335759Y-78090710D01*
X117488958Y-78013659D01*
X117494729Y-78008730D01*
X117494732Y-78008728D01*
X117613578Y-77907223D01*
X117619355Y-77902289D01*
X117692470Y-77800540D01*
X117714992Y-77769198D01*
X117714993Y-77769197D01*
X117719424Y-77763030D01*
X117783385Y-77603920D01*
X117807547Y-77434147D01*
X117807704Y-77419200D01*
X117787102Y-77248958D01*
X117774146Y-77214669D01*
X117729171Y-77095647D01*
X117726487Y-77088544D01*
X117629357Y-76947219D01*
X117623686Y-76942166D01*
X117506993Y-76838196D01*
X117506990Y-76838194D01*
X117501321Y-76833143D01*
X117493325Y-76828909D01*
X117363280Y-76760054D01*
X117312437Y-76710502D01*
X117296455Y-76641327D01*
X117320409Y-76574494D01*
X117376693Y-76531220D01*
X117422239Y-76522700D01*
X117997734Y-76522700D01*
X118059916Y-76515945D01*
X118196305Y-76464815D01*
X118312861Y-76377461D01*
X118400215Y-76260905D01*
X118441279Y-76151367D01*
X118483921Y-76094603D01*
X118550482Y-76069903D01*
X118619831Y-76085110D01*
X118669949Y-76135396D01*
X118677243Y-76151367D01*
X118708785Y-76235505D01*
X118796139Y-76352061D01*
X118912695Y-76439415D01*
X119049084Y-76490545D01*
X119070575Y-76492880D01*
X119076505Y-76493524D01*
X119142067Y-76520766D01*
X119182493Y-76579130D01*
X119184948Y-76650084D01*
X119148653Y-76711101D01*
X119092311Y-76741306D01*
X119062402Y-76748486D01*
X119062398Y-76748487D01*
X119055023Y-76750258D01*
X118902639Y-76828909D01*
X118773415Y-76941639D01*
X118674810Y-77081939D01*
X118669465Y-77095649D01*
X118623061Y-77214669D01*
X118612518Y-77241709D01*
X118590135Y-77411726D01*
X118608953Y-77582175D01*
X118611562Y-77589306D01*
X118611563Y-77589308D01*
X118641345Y-77670691D01*
X118667885Y-77743215D01*
X118672123Y-77749521D01*
X118675571Y-77756289D01*
X118673097Y-77757550D01*
X118690571Y-77812818D01*
X118671979Y-77881337D01*
X118653694Y-77904512D01*
X117873012Y-78685195D01*
X117810699Y-78719220D01*
X117783916Y-78722100D01*
X117104666Y-78722100D01*
X117042484Y-78728855D01*
X116906095Y-78779985D01*
X116789539Y-78867339D01*
X116702185Y-78983895D01*
X116651055Y-79120284D01*
X116644300Y-79182466D01*
X116644300Y-80278734D01*
X116651055Y-80340916D01*
X116702185Y-80477305D01*
X116789539Y-80593861D01*
X116906095Y-80681215D01*
X117042484Y-80732345D01*
X117104666Y-80739100D01*
X118200934Y-80739100D01*
X118263116Y-80732345D01*
X118399505Y-80681215D01*
X118516061Y-80593861D01*
X118603415Y-80477305D01*
X118645775Y-80364310D01*
X118688417Y-80307546D01*
X118754978Y-80282846D01*
X118824327Y-80298053D01*
X118874445Y-80348339D01*
X118886340Y-80379395D01*
X118887402Y-80383860D01*
X118888255Y-80391716D01*
X118891027Y-80399111D01*
X118891028Y-80399114D01*
X118917189Y-80468897D01*
X118939385Y-80528105D01*
X119026739Y-80644661D01*
X119143295Y-80732015D01*
X119279684Y-80783145D01*
X119341866Y-80789900D01*
X120438134Y-80789900D01*
X120500316Y-80783145D01*
X120636705Y-80732015D01*
X120753261Y-80644661D01*
X120840615Y-80528105D01*
X120891745Y-80391716D01*
X120898500Y-80329534D01*
X120898500Y-79650283D01*
X120918502Y-79582162D01*
X120935405Y-79561188D01*
X121664707Y-78831886D01*
X121677098Y-78821018D01*
X121694611Y-78807580D01*
X121701157Y-78802557D01*
X121723914Y-78772900D01*
X121739857Y-78752122D01*
X121794686Y-78680667D01*
X121853481Y-78538724D01*
X121853734Y-78536800D01*
X122708296Y-78536800D01*
X122708986Y-78543365D01*
X122718445Y-78633358D01*
X122728258Y-78726728D01*
X122787273Y-78908356D01*
X122790576Y-78914078D01*
X122790577Y-78914079D01*
X122805238Y-78939473D01*
X122882760Y-79073744D01*
X122887178Y-79078651D01*
X122887179Y-79078652D01*
X122983730Y-79185883D01*
X123010547Y-79215666D01*
X123052751Y-79246329D01*
X123154296Y-79320106D01*
X123165048Y-79327918D01*
X123171076Y-79330602D01*
X123171078Y-79330603D01*
X123309044Y-79392029D01*
X123339512Y-79405594D01*
X123432912Y-79425447D01*
X123519856Y-79443928D01*
X123519861Y-79443928D01*
X123526313Y-79445300D01*
X123717287Y-79445300D01*
X123723739Y-79443928D01*
X123723744Y-79443928D01*
X123810688Y-79425447D01*
X123904088Y-79405594D01*
X123934556Y-79392029D01*
X124072522Y-79330603D01*
X124072524Y-79330602D01*
X124078552Y-79327918D01*
X124089305Y-79320106D01*
X124190849Y-79246329D01*
X124233053Y-79215666D01*
X124259870Y-79185883D01*
X124356421Y-79078652D01*
X124356422Y-79078651D01*
X124360840Y-79073744D01*
X124368953Y-79059692D01*
X124420332Y-79010699D01*
X124490046Y-78997261D01*
X124555957Y-79023646D01*
X124587190Y-79059689D01*
X124609966Y-79099138D01*
X124614384Y-79104045D01*
X124614385Y-79104046D01*
X124710466Y-79210755D01*
X124737753Y-79241060D01*
X124772764Y-79266497D01*
X124881633Y-79345595D01*
X124892254Y-79353312D01*
X124898282Y-79355996D01*
X124898284Y-79355997D01*
X125060687Y-79428303D01*
X125066718Y-79430988D01*
X125160118Y-79450841D01*
X125247062Y-79469322D01*
X125247067Y-79469322D01*
X125253519Y-79470694D01*
X125444493Y-79470694D01*
X125450945Y-79469322D01*
X125450950Y-79469322D01*
X125537894Y-79450841D01*
X125631294Y-79430988D01*
X125637325Y-79428303D01*
X125799728Y-79355997D01*
X125799730Y-79355996D01*
X125805758Y-79353312D01*
X125816380Y-79345595D01*
X125925248Y-79266497D01*
X125960259Y-79241060D01*
X125987546Y-79210755D01*
X126083627Y-79104046D01*
X126083628Y-79104045D01*
X126088046Y-79099138D01*
X126168091Y-78960496D01*
X126180229Y-78939473D01*
X126180230Y-78939472D01*
X126183533Y-78933750D01*
X126242548Y-78752122D01*
X126244994Y-78728855D01*
X126261820Y-78568759D01*
X126262510Y-78562194D01*
X126242548Y-78372266D01*
X126183533Y-78190638D01*
X126172501Y-78171529D01*
X126145275Y-78124373D01*
X126088046Y-78025250D01*
X126077610Y-78013659D01*
X125964681Y-77888239D01*
X125964680Y-77888238D01*
X125960259Y-77883328D01*
X125805758Y-77771076D01*
X125799730Y-77768392D01*
X125799728Y-77768391D01*
X125637325Y-77696085D01*
X125637324Y-77696085D01*
X125631294Y-77693400D01*
X125537893Y-77673547D01*
X125450950Y-77655066D01*
X125450945Y-77655066D01*
X125444493Y-77653694D01*
X125253519Y-77653694D01*
X125247067Y-77655066D01*
X125247062Y-77655066D01*
X125160119Y-77673547D01*
X125066718Y-77693400D01*
X125060688Y-77696085D01*
X125060687Y-77696085D01*
X124898284Y-77768391D01*
X124898282Y-77768392D01*
X124892254Y-77771076D01*
X124737753Y-77883328D01*
X124733332Y-77888238D01*
X124733331Y-77888239D01*
X124620403Y-78013659D01*
X124609966Y-78025250D01*
X124601853Y-78039302D01*
X124550474Y-78088295D01*
X124480760Y-78101733D01*
X124414849Y-78075348D01*
X124383615Y-78039304D01*
X124383385Y-78038905D01*
X124360840Y-77999856D01*
X124272991Y-77902289D01*
X124237475Y-77862845D01*
X124237474Y-77862844D01*
X124233053Y-77857934D01*
X124133957Y-77785936D01*
X124083894Y-77749563D01*
X124083893Y-77749562D01*
X124078552Y-77745682D01*
X124072524Y-77742998D01*
X124072522Y-77742997D01*
X123910119Y-77670691D01*
X123910118Y-77670691D01*
X123904088Y-77668006D01*
X123810687Y-77648153D01*
X123723744Y-77629672D01*
X123723739Y-77629672D01*
X123717287Y-77628300D01*
X123526313Y-77628300D01*
X123519861Y-77629672D01*
X123519856Y-77629672D01*
X123432913Y-77648153D01*
X123339512Y-77668006D01*
X123333482Y-77670691D01*
X123333481Y-77670691D01*
X123171078Y-77742997D01*
X123171076Y-77742998D01*
X123165048Y-77745682D01*
X123159707Y-77749562D01*
X123159706Y-77749563D01*
X123109643Y-77785936D01*
X123010547Y-77857934D01*
X123006126Y-77862844D01*
X123006125Y-77862845D01*
X122970610Y-77902289D01*
X122882760Y-77999856D01*
X122860215Y-78038905D01*
X122797067Y-78148281D01*
X122787273Y-78165244D01*
X122728258Y-78346872D01*
X122727568Y-78353433D01*
X122727568Y-78353435D01*
X122726249Y-78365988D01*
X122708296Y-78536800D01*
X121853734Y-78536800D01*
X121868500Y-78424644D01*
X121873535Y-78386400D01*
X121869578Y-78356344D01*
X121868500Y-78339897D01*
X121868500Y-75844400D01*
X123673496Y-75844400D01*
X123674186Y-75850965D01*
X123685215Y-75955896D01*
X123693458Y-76034328D01*
X123752473Y-76215956D01*
X123755776Y-76221678D01*
X123755777Y-76221679D01*
X123758905Y-76227097D01*
X123847960Y-76381344D01*
X123852378Y-76386251D01*
X123852379Y-76386252D01*
X123943787Y-76487771D01*
X123975747Y-76523266D01*
X124130248Y-76635518D01*
X124136276Y-76638202D01*
X124136278Y-76638203D01*
X124298681Y-76710509D01*
X124304712Y-76713194D01*
X124398112Y-76733047D01*
X124485056Y-76751528D01*
X124485061Y-76751528D01*
X124491513Y-76752900D01*
X124682487Y-76752900D01*
X124688939Y-76751528D01*
X124688944Y-76751528D01*
X124775888Y-76733047D01*
X124869288Y-76713194D01*
X124875319Y-76710509D01*
X125037722Y-76638203D01*
X125037724Y-76638202D01*
X125043752Y-76635518D01*
X125198253Y-76523266D01*
X125230213Y-76487771D01*
X125321621Y-76386252D01*
X125321622Y-76386251D01*
X125326040Y-76381344D01*
X125415095Y-76227097D01*
X125418223Y-76221679D01*
X125418224Y-76221678D01*
X125421527Y-76215956D01*
X125480542Y-76034328D01*
X125488786Y-75955896D01*
X125499814Y-75850965D01*
X125500504Y-75844400D01*
X125480542Y-75654472D01*
X125421527Y-75472844D01*
X125326040Y-75307456D01*
X125283709Y-75260442D01*
X125202675Y-75170445D01*
X125202674Y-75170444D01*
X125198253Y-75165534D01*
X125099157Y-75093536D01*
X125049094Y-75057163D01*
X125049093Y-75057162D01*
X125043752Y-75053282D01*
X125037724Y-75050598D01*
X125037722Y-75050597D01*
X124875319Y-74978291D01*
X124875318Y-74978291D01*
X124869288Y-74975606D01*
X124775887Y-74955753D01*
X124688944Y-74937272D01*
X124688939Y-74937272D01*
X124682487Y-74935900D01*
X124491513Y-74935900D01*
X124485061Y-74937272D01*
X124485056Y-74937272D01*
X124398113Y-74955753D01*
X124304712Y-74975606D01*
X124298682Y-74978291D01*
X124298681Y-74978291D01*
X124136278Y-75050597D01*
X124136276Y-75050598D01*
X124130248Y-75053282D01*
X124124907Y-75057162D01*
X124124906Y-75057163D01*
X124074843Y-75093536D01*
X123975747Y-75165534D01*
X123971326Y-75170444D01*
X123971325Y-75170445D01*
X123890292Y-75260442D01*
X123847960Y-75307456D01*
X123752473Y-75472844D01*
X123693458Y-75654472D01*
X123673496Y-75844400D01*
X121868500Y-75844400D01*
X121868500Y-74594911D01*
X133486344Y-74594911D01*
X133507826Y-74684049D01*
X133511715Y-74695344D01*
X133594261Y-74876893D01*
X133600208Y-74887235D01*
X133715600Y-75049909D01*
X133723393Y-75058937D01*
X133867459Y-75196851D01*
X133876835Y-75204255D01*
X134044367Y-75312428D01*
X134054980Y-75317929D01*
X134239947Y-75392474D01*
X134251397Y-75395866D01*
X134448559Y-75434368D01*
X134457422Y-75435445D01*
X134460131Y-75435511D01*
X134689515Y-75435511D01*
X134704754Y-75431036D01*
X134705959Y-75429646D01*
X134707630Y-75421963D01*
X134707630Y-75417396D01*
X135215630Y-75417396D01*
X135220105Y-75432635D01*
X135221495Y-75433840D01*
X135229178Y-75435511D01*
X135411461Y-75435511D01*
X135417437Y-75435226D01*
X135566123Y-75421040D01*
X135577857Y-75418781D01*
X135769228Y-75362639D01*
X135780304Y-75358209D01*
X135957607Y-75266892D01*
X135967653Y-75260442D01*
X136124485Y-75137250D01*
X136133134Y-75129013D01*
X136263839Y-74978388D01*
X136270776Y-74968662D01*
X136370638Y-74796045D01*
X136375612Y-74785181D01*
X136441035Y-74596785D01*
X136441276Y-74595796D01*
X136441150Y-74594911D01*
X137786234Y-74594911D01*
X137807716Y-74684049D01*
X137811605Y-74695344D01*
X137894151Y-74876893D01*
X137900098Y-74887235D01*
X138015490Y-75049909D01*
X138023283Y-75058937D01*
X138167349Y-75196851D01*
X138176725Y-75204255D01*
X138344257Y-75312428D01*
X138354870Y-75317929D01*
X138539837Y-75392474D01*
X138551287Y-75395866D01*
X138748449Y-75434368D01*
X138757312Y-75435445D01*
X138760021Y-75435511D01*
X138889405Y-75435511D01*
X138904644Y-75431036D01*
X138905849Y-75429646D01*
X138907520Y-75421963D01*
X138907520Y-75417396D01*
X139415520Y-75417396D01*
X139419995Y-75432635D01*
X139421385Y-75433840D01*
X139429068Y-75435511D01*
X139511351Y-75435511D01*
X139517327Y-75435226D01*
X139666013Y-75421040D01*
X139677747Y-75418781D01*
X139869118Y-75362639D01*
X139880194Y-75358209D01*
X140057497Y-75266892D01*
X140067543Y-75260442D01*
X140224375Y-75137250D01*
X140233024Y-75129013D01*
X140363729Y-74978388D01*
X140370666Y-74968662D01*
X140470528Y-74796045D01*
X140475502Y-74785181D01*
X140540925Y-74596785D01*
X140541166Y-74595796D01*
X140539698Y-74585504D01*
X140526133Y-74581512D01*
X139433635Y-74581512D01*
X139418396Y-74585987D01*
X139417191Y-74587377D01*
X139415520Y-74595060D01*
X139415520Y-75417396D01*
X138907520Y-75417396D01*
X138907520Y-74599627D01*
X138903045Y-74584388D01*
X138901655Y-74583183D01*
X138893972Y-74581512D01*
X137801120Y-74581512D01*
X137787589Y-74585485D01*
X137786234Y-74594911D01*
X136441150Y-74594911D01*
X136439808Y-74585504D01*
X136426243Y-74581512D01*
X135233745Y-74581512D01*
X135218506Y-74585987D01*
X135217301Y-74587377D01*
X135215630Y-74595060D01*
X135215630Y-75417396D01*
X134707630Y-75417396D01*
X134707630Y-74599627D01*
X134703155Y-74584388D01*
X134701765Y-74583183D01*
X134694082Y-74581512D01*
X133501230Y-74581512D01*
X133487699Y-74585485D01*
X133486344Y-74594911D01*
X121868500Y-74594911D01*
X121868500Y-74059228D01*
X133481984Y-74059228D01*
X133483452Y-74069520D01*
X133497017Y-74073512D01*
X136422030Y-74073512D01*
X136435561Y-74069539D01*
X136436916Y-74060113D01*
X136436703Y-74059228D01*
X137781874Y-74059228D01*
X137783342Y-74069520D01*
X137796907Y-74073512D01*
X138889405Y-74073512D01*
X138904644Y-74069037D01*
X138905849Y-74067647D01*
X138907520Y-74059964D01*
X138907520Y-74055397D01*
X139415520Y-74055397D01*
X139419995Y-74070636D01*
X139421385Y-74071841D01*
X139429068Y-74073512D01*
X140521920Y-74073512D01*
X140535451Y-74069539D01*
X140536806Y-74060113D01*
X140515324Y-73970975D01*
X140511435Y-73959680D01*
X140428889Y-73778131D01*
X140422942Y-73767789D01*
X140307550Y-73605115D01*
X140299757Y-73596087D01*
X140155691Y-73458173D01*
X140146315Y-73450769D01*
X139978783Y-73342596D01*
X139968170Y-73337095D01*
X139783203Y-73262550D01*
X139771753Y-73259158D01*
X139574591Y-73220656D01*
X139565728Y-73219579D01*
X139563019Y-73219513D01*
X139433635Y-73219513D01*
X139418396Y-73223988D01*
X139417191Y-73225378D01*
X139415520Y-73233061D01*
X139415520Y-74055397D01*
X138907520Y-74055397D01*
X138907520Y-73237628D01*
X138903045Y-73222389D01*
X138901655Y-73221184D01*
X138893972Y-73219513D01*
X138811689Y-73219513D01*
X138805713Y-73219798D01*
X138657027Y-73233984D01*
X138645293Y-73236243D01*
X138453922Y-73292385D01*
X138442846Y-73296815D01*
X138265543Y-73388132D01*
X138255497Y-73394582D01*
X138098665Y-73517774D01*
X138090016Y-73526011D01*
X137959311Y-73676636D01*
X137952374Y-73686362D01*
X137852512Y-73858979D01*
X137847538Y-73869843D01*
X137782115Y-74058239D01*
X137781874Y-74059228D01*
X136436703Y-74059228D01*
X136415434Y-73970975D01*
X136411545Y-73959680D01*
X136328999Y-73778131D01*
X136323052Y-73767789D01*
X136207660Y-73605115D01*
X136199868Y-73596088D01*
X136190816Y-73587423D01*
X136155439Y-73525868D01*
X136158956Y-73454959D01*
X136176009Y-73422342D01*
X136227228Y-73351846D01*
X136227229Y-73351845D01*
X136231109Y-73346504D01*
X136285657Y-73223988D01*
X136303963Y-73182871D01*
X136303963Y-73182870D01*
X136306648Y-73176840D01*
X136345261Y-72995178D01*
X136345261Y-72809458D01*
X136342177Y-72794946D01*
X136320495Y-72692943D01*
X136306648Y-72627796D01*
X136299103Y-72610850D01*
X136233794Y-72464162D01*
X136233793Y-72464160D01*
X136231109Y-72458132D01*
X136227228Y-72452790D01*
X136125828Y-72313225D01*
X136125826Y-72313223D01*
X136121945Y-72307881D01*
X135983928Y-72183610D01*
X135823089Y-72090750D01*
X135710588Y-72054196D01*
X135652738Y-72035399D01*
X135652736Y-72035399D01*
X135646459Y-72033359D01*
X135639896Y-72032669D01*
X135639895Y-72032669D01*
X135615699Y-72030126D01*
X135508063Y-72018813D01*
X135415449Y-72018813D01*
X135307813Y-72030126D01*
X135283617Y-72032669D01*
X135283616Y-72032669D01*
X135277053Y-72033359D01*
X135270776Y-72035399D01*
X135270774Y-72035399D01*
X135212924Y-72054196D01*
X135100423Y-72090750D01*
X134939584Y-72183610D01*
X134801567Y-72307881D01*
X134797686Y-72313223D01*
X134797684Y-72313225D01*
X134696284Y-72452790D01*
X134692403Y-72458132D01*
X134689719Y-72464160D01*
X134689718Y-72464162D01*
X134624409Y-72610850D01*
X134616864Y-72627796D01*
X134603017Y-72692943D01*
X134581336Y-72794946D01*
X134578251Y-72809458D01*
X134578251Y-72995178D01*
X134579623Y-73001631D01*
X134579623Y-73001635D01*
X134594230Y-73070353D01*
X134588828Y-73141144D01*
X134546011Y-73197776D01*
X134482950Y-73221980D01*
X134357137Y-73233984D01*
X134345403Y-73236243D01*
X134154032Y-73292385D01*
X134142956Y-73296815D01*
X133965653Y-73388132D01*
X133955607Y-73394582D01*
X133798775Y-73517774D01*
X133790126Y-73526011D01*
X133659421Y-73676636D01*
X133652484Y-73686362D01*
X133552622Y-73858979D01*
X133547648Y-73869843D01*
X133482225Y-74058239D01*
X133481984Y-74059228D01*
X121868500Y-74059228D01*
X121868500Y-70277503D01*
X121869578Y-70261056D01*
X121872457Y-70239188D01*
X121873535Y-70231000D01*
X121853481Y-70078676D01*
X121835656Y-70035643D01*
X121797846Y-69944361D01*
X121797845Y-69944359D01*
X121794686Y-69936733D01*
X121778522Y-69915668D01*
X121701157Y-69814843D01*
X121677097Y-69796381D01*
X121664707Y-69785514D01*
X117823880Y-65944687D01*
X133486344Y-65944687D01*
X133507826Y-66033825D01*
X133511715Y-66045120D01*
X133594261Y-66226669D01*
X133600208Y-66237011D01*
X133715600Y-66399685D01*
X133723393Y-66408713D01*
X133867459Y-66546627D01*
X133876835Y-66554031D01*
X134044367Y-66662204D01*
X134054980Y-66667705D01*
X134239947Y-66742250D01*
X134251397Y-66745642D01*
X134448559Y-66784144D01*
X134457422Y-66785221D01*
X134460131Y-66785287D01*
X134470337Y-66785287D01*
X134538458Y-66805289D01*
X134584951Y-66858945D01*
X134595055Y-66929219D01*
X134593584Y-66937483D01*
X134578251Y-67009622D01*
X134578251Y-67195342D01*
X134616864Y-67377004D01*
X134619549Y-67383034D01*
X134619549Y-67383035D01*
X134686819Y-67534125D01*
X134692403Y-67546668D01*
X134801567Y-67696919D01*
X134806477Y-67701340D01*
X134806478Y-67701341D01*
X134864828Y-67753879D01*
X134939584Y-67821190D01*
X134945302Y-67824491D01*
X135068124Y-67895402D01*
X135100423Y-67914050D01*
X135119009Y-67920089D01*
X135270774Y-67969401D01*
X135270776Y-67969401D01*
X135277053Y-67971441D01*
X135283616Y-67972131D01*
X135283617Y-67972131D01*
X135307813Y-67974674D01*
X135415449Y-67985987D01*
X135508063Y-67985987D01*
X135615699Y-67974674D01*
X135639895Y-67972131D01*
X135639896Y-67972131D01*
X135646459Y-67971441D01*
X135652736Y-67969401D01*
X135652738Y-67969401D01*
X135804503Y-67920089D01*
X135823089Y-67914050D01*
X135855389Y-67895402D01*
X135978210Y-67824491D01*
X135983928Y-67821190D01*
X136058685Y-67753879D01*
X136117034Y-67701341D01*
X136117035Y-67701340D01*
X136121945Y-67696919D01*
X136231109Y-67546668D01*
X136236694Y-67534125D01*
X136303963Y-67383035D01*
X136303963Y-67383034D01*
X136306648Y-67377004D01*
X136345261Y-67195342D01*
X136345261Y-67009622D01*
X136343889Y-67003163D01*
X136308020Y-66834417D01*
X136306648Y-66827960D01*
X136293375Y-66798148D01*
X136233794Y-66664326D01*
X136233793Y-66664324D01*
X136231109Y-66658296D01*
X136227228Y-66652954D01*
X136174333Y-66580150D01*
X136150474Y-66513282D01*
X136166555Y-66444130D01*
X136181104Y-66423509D01*
X136263834Y-66328171D01*
X136270776Y-66318438D01*
X136370638Y-66145821D01*
X136375612Y-66134957D01*
X136441035Y-65946561D01*
X136441276Y-65945572D01*
X136441150Y-65944687D01*
X137786234Y-65944687D01*
X137807716Y-66033825D01*
X137811605Y-66045120D01*
X137894151Y-66226669D01*
X137900098Y-66237011D01*
X138015490Y-66399685D01*
X138023283Y-66408713D01*
X138167349Y-66546627D01*
X138176725Y-66554031D01*
X138344257Y-66662204D01*
X138354870Y-66667705D01*
X138539837Y-66742250D01*
X138551287Y-66745642D01*
X138748449Y-66784144D01*
X138757312Y-66785221D01*
X138760021Y-66785287D01*
X138889405Y-66785287D01*
X138904644Y-66780812D01*
X138905849Y-66779422D01*
X138907520Y-66771739D01*
X138907520Y-66767172D01*
X139415520Y-66767172D01*
X139419995Y-66782411D01*
X139421385Y-66783616D01*
X139429068Y-66785287D01*
X139511351Y-66785287D01*
X139517327Y-66785002D01*
X139666013Y-66770816D01*
X139677747Y-66768557D01*
X139869118Y-66712415D01*
X139880194Y-66707985D01*
X140057497Y-66616668D01*
X140067543Y-66610218D01*
X140224375Y-66487026D01*
X140233024Y-66478789D01*
X140363729Y-66328164D01*
X140370666Y-66318438D01*
X140470528Y-66145821D01*
X140475502Y-66134957D01*
X140540925Y-65946561D01*
X140541166Y-65945572D01*
X140539698Y-65935280D01*
X140526133Y-65931288D01*
X139433635Y-65931288D01*
X139418396Y-65935763D01*
X139417191Y-65937153D01*
X139415520Y-65944836D01*
X139415520Y-66767172D01*
X138907520Y-66767172D01*
X138907520Y-65949403D01*
X138903045Y-65934164D01*
X138901655Y-65932959D01*
X138893972Y-65931288D01*
X137801120Y-65931288D01*
X137787589Y-65935261D01*
X137786234Y-65944687D01*
X136441150Y-65944687D01*
X136439808Y-65935280D01*
X136426243Y-65931288D01*
X133501230Y-65931288D01*
X133487699Y-65935261D01*
X133486344Y-65944687D01*
X117823880Y-65944687D01*
X116794119Y-64914926D01*
X117548735Y-64914926D01*
X117558049Y-64999292D01*
X117565789Y-65069394D01*
X117567553Y-65085375D01*
X117570162Y-65092506D01*
X117570163Y-65092508D01*
X117586143Y-65136175D01*
X117626485Y-65246415D01*
X117630722Y-65252721D01*
X117630724Y-65252724D01*
X117655826Y-65290079D01*
X117722130Y-65388749D01*
X117760088Y-65423288D01*
X117807093Y-65466059D01*
X117848965Y-65504160D01*
X117999668Y-65585985D01*
X118165539Y-65629501D01*
X118252986Y-65630874D01*
X118329403Y-65632075D01*
X118329406Y-65632075D01*
X118337002Y-65632194D01*
X118344406Y-65630498D01*
X118344408Y-65630498D01*
X118408154Y-65615898D01*
X118504159Y-65593910D01*
X118591763Y-65549850D01*
X118650573Y-65520272D01*
X118650576Y-65520270D01*
X118657358Y-65516859D01*
X118660615Y-65514078D01*
X118727074Y-65493460D01*
X118789114Y-65508714D01*
X118810402Y-65520272D01*
X118837868Y-65535185D01*
X119003739Y-65578701D01*
X119091186Y-65580074D01*
X119167603Y-65581275D01*
X119167606Y-65581275D01*
X119175202Y-65581394D01*
X119182606Y-65579698D01*
X119182608Y-65579698D01*
X119290619Y-65554960D01*
X119342359Y-65543110D01*
X119365100Y-65531673D01*
X119434942Y-65518935D01*
X119481834Y-65533507D01*
X119569812Y-65581275D01*
X119625268Y-65611385D01*
X119791139Y-65654901D01*
X119878586Y-65656274D01*
X119955003Y-65657475D01*
X119955006Y-65657475D01*
X119962602Y-65657594D01*
X119970006Y-65655898D01*
X119970008Y-65655898D01*
X120033754Y-65641298D01*
X120129759Y-65619310D01*
X120276717Y-65545398D01*
X120346561Y-65532660D01*
X120365305Y-65536087D01*
X120519774Y-65576611D01*
X120527739Y-65578701D01*
X120615186Y-65580074D01*
X120691603Y-65581275D01*
X120691606Y-65581275D01*
X120699202Y-65581394D01*
X120706606Y-65579698D01*
X120706608Y-65579698D01*
X120794111Y-65559657D01*
X120866359Y-65543110D01*
X121019558Y-65466059D01*
X121025329Y-65461130D01*
X121025332Y-65461128D01*
X121086361Y-65409004D01*
X133481984Y-65409004D01*
X133483452Y-65419296D01*
X133497017Y-65423288D01*
X134689515Y-65423288D01*
X134704754Y-65418813D01*
X134705959Y-65417423D01*
X134707630Y-65409740D01*
X134707630Y-65405173D01*
X135215630Y-65405173D01*
X135220105Y-65420412D01*
X135221495Y-65421617D01*
X135229178Y-65423288D01*
X136422030Y-65423288D01*
X136435561Y-65419315D01*
X136436916Y-65409889D01*
X136436703Y-65409004D01*
X137781874Y-65409004D01*
X137783342Y-65419296D01*
X137796907Y-65423288D01*
X138889405Y-65423288D01*
X138904644Y-65418813D01*
X138905849Y-65417423D01*
X138907520Y-65409740D01*
X138907520Y-65405173D01*
X139415520Y-65405173D01*
X139419995Y-65420412D01*
X139421385Y-65421617D01*
X139429068Y-65423288D01*
X140521920Y-65423288D01*
X140535451Y-65419315D01*
X140536806Y-65409889D01*
X140515324Y-65320751D01*
X140511435Y-65309456D01*
X140428889Y-65127907D01*
X140422942Y-65117565D01*
X140307550Y-64954891D01*
X140299757Y-64945863D01*
X140155691Y-64807949D01*
X140146315Y-64800545D01*
X139978783Y-64692372D01*
X139968170Y-64686871D01*
X139783203Y-64612326D01*
X139771753Y-64608934D01*
X139574591Y-64570432D01*
X139565728Y-64569355D01*
X139563019Y-64569289D01*
X139433635Y-64569289D01*
X139418396Y-64573764D01*
X139417191Y-64575154D01*
X139415520Y-64582837D01*
X139415520Y-65405173D01*
X138907520Y-65405173D01*
X138907520Y-64587404D01*
X138903045Y-64572165D01*
X138901655Y-64570960D01*
X138893972Y-64569289D01*
X138811689Y-64569289D01*
X138805713Y-64569574D01*
X138657027Y-64583760D01*
X138645293Y-64586019D01*
X138453922Y-64642161D01*
X138442846Y-64646591D01*
X138265543Y-64737908D01*
X138255497Y-64744358D01*
X138098665Y-64867550D01*
X138090016Y-64875787D01*
X137959311Y-65026412D01*
X137952374Y-65036138D01*
X137852512Y-65208755D01*
X137847538Y-65219619D01*
X137782115Y-65408015D01*
X137781874Y-65409004D01*
X136436703Y-65409004D01*
X136415434Y-65320751D01*
X136411545Y-65309456D01*
X136328999Y-65127907D01*
X136323052Y-65117565D01*
X136207660Y-64954891D01*
X136199867Y-64945863D01*
X136055801Y-64807949D01*
X136046425Y-64800545D01*
X135878893Y-64692372D01*
X135868280Y-64686871D01*
X135683313Y-64612326D01*
X135671863Y-64608934D01*
X135474701Y-64570432D01*
X135465838Y-64569355D01*
X135463129Y-64569289D01*
X135233745Y-64569289D01*
X135218506Y-64573764D01*
X135217301Y-64575154D01*
X135215630Y-64582837D01*
X135215630Y-65405173D01*
X134707630Y-65405173D01*
X134707630Y-64587404D01*
X134703155Y-64572165D01*
X134701765Y-64570960D01*
X134694082Y-64569289D01*
X134511799Y-64569289D01*
X134505823Y-64569574D01*
X134357137Y-64583760D01*
X134345403Y-64586019D01*
X134154032Y-64642161D01*
X134142956Y-64646591D01*
X133965653Y-64737908D01*
X133955607Y-64744358D01*
X133798775Y-64867550D01*
X133790126Y-64875787D01*
X133659421Y-65026412D01*
X133652484Y-65036138D01*
X133552622Y-65208755D01*
X133547648Y-65219619D01*
X133482225Y-65408015D01*
X133481984Y-65409004D01*
X121086361Y-65409004D01*
X121144178Y-65359623D01*
X121149955Y-65354689D01*
X121235618Y-65235478D01*
X121245592Y-65221598D01*
X121245593Y-65221597D01*
X121250024Y-65215430D01*
X121313985Y-65056320D01*
X121316178Y-65040911D01*
X121345577Y-64976287D01*
X121351826Y-64969567D01*
X123089988Y-63231405D01*
X123152300Y-63197379D01*
X123179083Y-63194500D01*
X125719570Y-63194500D01*
X125779692Y-63209769D01*
X125899068Y-63274585D01*
X126064939Y-63318101D01*
X126152386Y-63319474D01*
X126228803Y-63320675D01*
X126228806Y-63320675D01*
X126236402Y-63320794D01*
X126243806Y-63319098D01*
X126243808Y-63319098D01*
X126306768Y-63304678D01*
X126403559Y-63282510D01*
X126556758Y-63205459D01*
X126562529Y-63200530D01*
X126562532Y-63200528D01*
X126681378Y-63099023D01*
X126687155Y-63094089D01*
X126787224Y-62954830D01*
X126851185Y-62795720D01*
X126875347Y-62625947D01*
X126875504Y-62611000D01*
X126869356Y-62560200D01*
X126855815Y-62448299D01*
X126855814Y-62448296D01*
X126854902Y-62440758D01*
X126802095Y-62301006D01*
X126796971Y-62287447D01*
X126794287Y-62280344D01*
X126697157Y-62139019D01*
X126626644Y-62076194D01*
X126574793Y-62029996D01*
X126574790Y-62029994D01*
X126569121Y-62024943D01*
X126561125Y-62020709D01*
X126424281Y-61948254D01*
X126424282Y-61948254D01*
X126417569Y-61944700D01*
X126399996Y-61940286D01*
X126258622Y-61904775D01*
X126258618Y-61904775D01*
X126251251Y-61902924D01*
X126243652Y-61902884D01*
X126243650Y-61902884D01*
X126172194Y-61902510D01*
X126079769Y-61902026D01*
X126072389Y-61903798D01*
X126072387Y-61903798D01*
X125920402Y-61940286D01*
X125920398Y-61940287D01*
X125913023Y-61942058D01*
X125894179Y-61951784D01*
X125774672Y-62013466D01*
X125716882Y-62027500D01*
X123810684Y-62027500D01*
X123742563Y-62007498D01*
X123696070Y-61953842D01*
X123685966Y-61883568D01*
X123715460Y-61818988D01*
X123721589Y-61812405D01*
X123851989Y-61682005D01*
X123914301Y-61647979D01*
X123941084Y-61645100D01*
X128919970Y-61645100D01*
X128980092Y-61660369D01*
X129099468Y-61725185D01*
X129265339Y-61768701D01*
X129352786Y-61770074D01*
X129429203Y-61771275D01*
X129429206Y-61771275D01*
X129436802Y-61771394D01*
X129444206Y-61769698D01*
X129444208Y-61769698D01*
X129509648Y-61754710D01*
X129603959Y-61733110D01*
X129757158Y-61656059D01*
X129762929Y-61651130D01*
X129762932Y-61651128D01*
X129881778Y-61549623D01*
X129887555Y-61544689D01*
X129987624Y-61405430D01*
X130051585Y-61246320D01*
X130052655Y-61238802D01*
X130075166Y-61080631D01*
X130075166Y-61080627D01*
X130075747Y-61076547D01*
X130075904Y-61061600D01*
X130055302Y-60891358D01*
X130042212Y-60856714D01*
X129997371Y-60738047D01*
X129994687Y-60730944D01*
X129962276Y-60683785D01*
X129939267Y-60650307D01*
X129917167Y-60582838D01*
X129935053Y-60514131D01*
X129940785Y-60505414D01*
X129983190Y-60446402D01*
X129983194Y-60446396D01*
X129987624Y-60440230D01*
X130051585Y-60281120D01*
X130064509Y-60190308D01*
X130075166Y-60115431D01*
X130075166Y-60115427D01*
X130075747Y-60111347D01*
X130075904Y-60096400D01*
X130055302Y-59926158D01*
X130023770Y-59842709D01*
X129997371Y-59772847D01*
X129994687Y-59765744D01*
X129942316Y-59689544D01*
X129915993Y-59651243D01*
X129893893Y-59583774D01*
X129911779Y-59515067D01*
X129917511Y-59506349D01*
X130008592Y-59379598D01*
X130008593Y-59379597D01*
X130013024Y-59373430D01*
X130076985Y-59214320D01*
X130097933Y-59067128D01*
X130100566Y-59048631D01*
X130100566Y-59048627D01*
X130101147Y-59044547D01*
X130101304Y-59029600D01*
X130083656Y-58883765D01*
X130081615Y-58866899D01*
X130081614Y-58866896D01*
X130080702Y-58859358D01*
X130065606Y-58819406D01*
X130022771Y-58706047D01*
X130020087Y-58698944D01*
X129961324Y-58613443D01*
X129927259Y-58563878D01*
X129927258Y-58563876D01*
X129922957Y-58557619D01*
X129917286Y-58552566D01*
X129800593Y-58448596D01*
X129800590Y-58448594D01*
X129794921Y-58443543D01*
X129786925Y-58439309D01*
X129650081Y-58366854D01*
X129650082Y-58366854D01*
X129643369Y-58363300D01*
X129625796Y-58358886D01*
X129484422Y-58323375D01*
X129484418Y-58323375D01*
X129477051Y-58321524D01*
X129469452Y-58321484D01*
X129469450Y-58321484D01*
X129397994Y-58321110D01*
X129305569Y-58320626D01*
X129298189Y-58322398D01*
X129298187Y-58322398D01*
X129146202Y-58358886D01*
X129146198Y-58358887D01*
X129138823Y-58360658D01*
X128986439Y-58439309D01*
X128883088Y-58529469D01*
X128868667Y-58542049D01*
X128804185Y-58571757D01*
X128785837Y-58573100D01*
X123973101Y-58573100D01*
X123956656Y-58572022D01*
X123926600Y-58568065D01*
X123888357Y-58573100D01*
X123888356Y-58573100D01*
X123806831Y-58583833D01*
X123782890Y-58586985D01*
X123774276Y-58588119D01*
X123713139Y-58613443D01*
X123632332Y-58646914D01*
X123541045Y-58716961D01*
X123510443Y-58740443D01*
X123505415Y-58746996D01*
X123491988Y-58764494D01*
X123481121Y-58776885D01*
X118008744Y-64249263D01*
X117977440Y-64272133D01*
X117861239Y-64332109D01*
X117732015Y-64444839D01*
X117633410Y-64585139D01*
X117624558Y-64607843D01*
X117578195Y-64726758D01*
X117571118Y-64744909D01*
X117570126Y-64752442D01*
X117570126Y-64752443D01*
X117553888Y-64875787D01*
X117548735Y-64914926D01*
X116794119Y-64914926D01*
X116523486Y-64644293D01*
X116512618Y-64631902D01*
X116499180Y-64614389D01*
X116494157Y-64607843D01*
X116372267Y-64514314D01*
X116230324Y-64455519D01*
X116116244Y-64440500D01*
X116078000Y-64435465D01*
X116069812Y-64436543D01*
X116047944Y-64439422D01*
X116031497Y-64440500D01*
X115480048Y-64440500D01*
X115421089Y-64425854D01*
X115299081Y-64361254D01*
X115299082Y-64361254D01*
X115292369Y-64357700D01*
X115219259Y-64339336D01*
X115133422Y-64317775D01*
X115133418Y-64317775D01*
X115126051Y-64315924D01*
X115118452Y-64315884D01*
X115118450Y-64315884D01*
X115046994Y-64315510D01*
X114954569Y-64315026D01*
X114947189Y-64316798D01*
X114947187Y-64316798D01*
X114795202Y-64353286D01*
X114795198Y-64353287D01*
X114787823Y-64355058D01*
X114635439Y-64433709D01*
X114506215Y-64546439D01*
X114407610Y-64686739D01*
X114345318Y-64846509D01*
X114344326Y-64854042D01*
X114344326Y-64854043D01*
X114325204Y-64999292D01*
X114322935Y-65016526D01*
X114324171Y-65027718D01*
X114333638Y-65113474D01*
X114321232Y-65183378D01*
X114273002Y-65235478D01*
X114208399Y-65253300D01*
X113933483Y-65253300D01*
X113865362Y-65233298D01*
X113844388Y-65216395D01*
X113428920Y-64800927D01*
X113396453Y-64741471D01*
X113395626Y-64741674D01*
X113393815Y-64734300D01*
X113392902Y-64726758D01*
X113380456Y-64693819D01*
X113334971Y-64573447D01*
X113332287Y-64566344D01*
X113258291Y-64458679D01*
X113239459Y-64431278D01*
X113239458Y-64431276D01*
X113235157Y-64425019D01*
X113229485Y-64419965D01*
X113112793Y-64315996D01*
X113112790Y-64315994D01*
X113107121Y-64310943D01*
X113099125Y-64306709D01*
X113033824Y-64272134D01*
X112955569Y-64230700D01*
X112937996Y-64226286D01*
X112796622Y-64190775D01*
X112796618Y-64190775D01*
X112789251Y-64188924D01*
X112781652Y-64188884D01*
X112781650Y-64188884D01*
X112710194Y-64188510D01*
X112617769Y-64188026D01*
X112610389Y-64189798D01*
X112610387Y-64189798D01*
X112458402Y-64226286D01*
X112458398Y-64226287D01*
X112451023Y-64228058D01*
X112298639Y-64306709D01*
X112292919Y-64311699D01*
X112286631Y-64315972D01*
X112285413Y-64314180D01*
X112230812Y-64339336D01*
X112160505Y-64329467D01*
X112153526Y-64326044D01*
X112117369Y-64306900D01*
X112102750Y-64303228D01*
X112021772Y-64282888D01*
X111963372Y-64249779D01*
X108700286Y-60986693D01*
X108689418Y-60974302D01*
X108675980Y-60956789D01*
X108670957Y-60950243D01*
X108549067Y-60856714D01*
X108407124Y-60797919D01*
X108382516Y-60794679D01*
X108339883Y-60789066D01*
X108297371Y-60775498D01*
X108161682Y-60703654D01*
X108161679Y-60703653D01*
X108154969Y-60700100D01*
X108121567Y-60691710D01*
X107996022Y-60660175D01*
X107996018Y-60660175D01*
X107988651Y-60658324D01*
X107981052Y-60658284D01*
X107981050Y-60658284D01*
X107909594Y-60657910D01*
X107817169Y-60657426D01*
X107809789Y-60659198D01*
X107809787Y-60659198D01*
X107657802Y-60695686D01*
X107657798Y-60695687D01*
X107650423Y-60697458D01*
X107498039Y-60776109D01*
X107368815Y-60888839D01*
X107270210Y-61029139D01*
X107207918Y-61188909D01*
X107206926Y-61196442D01*
X107206926Y-61196443D01*
X107191145Y-61316316D01*
X107185535Y-61358926D01*
X107204353Y-61529375D01*
X107206962Y-61536506D01*
X107206963Y-61536508D01*
X107212834Y-61552551D01*
X107263285Y-61690415D01*
X107267522Y-61696721D01*
X107267524Y-61696724D01*
X107287944Y-61727111D01*
X107358930Y-61832749D01*
X107364546Y-61837859D01*
X107477112Y-61940286D01*
X107485765Y-61948160D01*
X107636468Y-62029985D01*
X107802339Y-62073501D01*
X107889786Y-62074874D01*
X107966203Y-62076075D01*
X107966206Y-62076075D01*
X107973802Y-62076194D01*
X107981207Y-62074498D01*
X107981208Y-62074498D01*
X108040603Y-62060895D01*
X108111470Y-62065185D01*
X108157827Y-62094620D01*
X109176212Y-63113005D01*
X109210238Y-63175317D01*
X109205173Y-63246132D01*
X109162626Y-63302968D01*
X109096106Y-63327779D01*
X109087117Y-63328100D01*
X108997513Y-63328100D01*
X108991061Y-63329472D01*
X108991056Y-63329472D01*
X108904113Y-63347953D01*
X108810712Y-63367806D01*
X108804682Y-63370491D01*
X108804681Y-63370491D01*
X108642278Y-63442797D01*
X108642276Y-63442798D01*
X108636248Y-63445482D01*
X108481747Y-63557734D01*
X108353960Y-63699656D01*
X108258473Y-63865044D01*
X108199458Y-64046672D01*
X108198768Y-64053233D01*
X108198768Y-64053235D01*
X108187788Y-64157702D01*
X108179496Y-64236600D01*
X108180186Y-64243165D01*
X108192598Y-64361254D01*
X108199458Y-64426528D01*
X108258473Y-64608156D01*
X108261776Y-64613878D01*
X108261777Y-64613879D01*
X108295686Y-64672610D01*
X108353960Y-64773544D01*
X108358378Y-64778451D01*
X108358379Y-64778452D01*
X108438603Y-64867550D01*
X108481747Y-64915466D01*
X108523585Y-64945863D01*
X108620844Y-65016526D01*
X108636248Y-65027718D01*
X108642276Y-65030402D01*
X108642278Y-65030403D01*
X108765748Y-65085375D01*
X108810712Y-65105394D01*
X108904112Y-65125247D01*
X108991056Y-65143728D01*
X108991061Y-65143728D01*
X108997513Y-65145100D01*
X109188487Y-65145100D01*
X109194939Y-65143728D01*
X109194944Y-65143728D01*
X109281888Y-65125247D01*
X109375288Y-65105394D01*
X109420252Y-65085375D01*
X109543722Y-65030403D01*
X109543724Y-65030402D01*
X109549752Y-65027718D01*
X109565157Y-65016526D01*
X109662415Y-64945863D01*
X109704253Y-64915466D01*
X109747397Y-64867550D01*
X109827621Y-64778452D01*
X109827622Y-64778451D01*
X109832040Y-64773544D01*
X109890314Y-64672610D01*
X109924223Y-64613879D01*
X109924224Y-64613878D01*
X109927527Y-64608156D01*
X109986542Y-64426528D01*
X109993403Y-64361254D01*
X110006504Y-64236600D01*
X110008739Y-64236835D01*
X110025816Y-64178676D01*
X110079472Y-64132183D01*
X110149746Y-64122079D01*
X110214326Y-64151573D01*
X110220892Y-64157685D01*
X111132602Y-65069396D01*
X111166006Y-65129413D01*
X111166753Y-65136175D01*
X111225685Y-65297215D01*
X111229922Y-65303521D01*
X111229924Y-65303524D01*
X111260160Y-65348519D01*
X111321330Y-65439549D01*
X111326946Y-65444659D01*
X111437657Y-65545398D01*
X111448165Y-65554960D01*
X111598868Y-65636785D01*
X111764739Y-65680301D01*
X111852186Y-65681674D01*
X111928603Y-65682875D01*
X111928606Y-65682875D01*
X111936202Y-65682994D01*
X111943606Y-65681298D01*
X111943608Y-65681298D01*
X112047104Y-65657594D01*
X112103359Y-65644710D01*
X112256558Y-65567659D01*
X112265927Y-65559657D01*
X112330716Y-65530626D01*
X112400916Y-65541231D01*
X112407863Y-65544728D01*
X112437068Y-65560585D01*
X112444410Y-65562511D01*
X112444412Y-65562512D01*
X112541159Y-65587893D01*
X112598281Y-65620674D01*
X113006412Y-66028805D01*
X113040438Y-66091117D01*
X113035373Y-66161932D01*
X112992826Y-66218768D01*
X112926306Y-66243579D01*
X112917317Y-66243900D01*
X108139448Y-66243900D01*
X108080489Y-66229254D01*
X107958481Y-66164654D01*
X107958482Y-66164654D01*
X107951769Y-66161100D01*
X107934196Y-66156686D01*
X107792822Y-66121175D01*
X107792818Y-66121175D01*
X107785451Y-66119324D01*
X107777852Y-66119284D01*
X107777850Y-66119284D01*
X107706394Y-66118910D01*
X107613969Y-66118426D01*
X107606589Y-66120198D01*
X107606587Y-66120198D01*
X107454602Y-66156686D01*
X107454598Y-66156687D01*
X107447223Y-66158458D01*
X107294839Y-66237109D01*
X107165615Y-66349839D01*
X107067010Y-66490139D01*
X107004718Y-66649909D01*
X107003726Y-66657442D01*
X107003726Y-66657443D01*
X106984601Y-66802716D01*
X106982335Y-66819926D01*
X106985414Y-66847814D01*
X106995314Y-66937483D01*
X107001153Y-66990375D01*
X107003762Y-66997506D01*
X107003763Y-66997508D01*
X107005833Y-67003165D01*
X107060085Y-67151415D01*
X107064322Y-67157721D01*
X107064324Y-67157724D01*
X107089603Y-67195342D01*
X107155730Y-67293749D01*
X107282565Y-67409160D01*
X107433268Y-67490985D01*
X107599139Y-67534501D01*
X107686586Y-67535874D01*
X107763003Y-67537075D01*
X107763006Y-67537075D01*
X107770602Y-67537194D01*
X107778006Y-67535498D01*
X107778008Y-67535498D01*
X107843557Y-67520485D01*
X107937759Y-67498910D01*
X108086035Y-67424335D01*
X108142649Y-67410900D01*
X110855224Y-67410900D01*
X110923345Y-67430902D01*
X110969838Y-67484558D01*
X110980463Y-67523074D01*
X110983658Y-67552010D01*
X110988953Y-67599975D01*
X111047885Y-67761015D01*
X111143530Y-67903349D01*
X111270365Y-68018760D01*
X111421068Y-68100585D01*
X111586939Y-68144101D01*
X111674386Y-68145474D01*
X111750803Y-68146675D01*
X111750806Y-68146675D01*
X111758402Y-68146794D01*
X111765806Y-68145098D01*
X111765808Y-68145098D01*
X111849259Y-68125985D01*
X111925559Y-68108510D01*
X112078758Y-68031459D01*
X112084529Y-68026530D01*
X112084532Y-68026528D01*
X112203378Y-67925023D01*
X112209155Y-67920089D01*
X112212347Y-67915647D01*
X112272402Y-67879510D01*
X112304319Y-67875400D01*
X112626636Y-67875400D01*
X112694757Y-67895402D01*
X112741250Y-67949058D01*
X112744960Y-67958094D01*
X112775085Y-68040415D01*
X112779322Y-68046721D01*
X112779324Y-68046724D01*
X112791414Y-68064715D01*
X112870730Y-68182749D01*
X112876346Y-68187859D01*
X112957436Y-68261645D01*
X112997565Y-68298160D01*
X113148268Y-68379985D01*
X113314139Y-68423501D01*
X113401586Y-68424874D01*
X113478003Y-68426075D01*
X113478006Y-68426075D01*
X113485602Y-68426194D01*
X113493006Y-68424498D01*
X113493008Y-68424498D01*
X113605839Y-68398656D01*
X113652759Y-68387910D01*
X113801035Y-68313335D01*
X113857649Y-68299900D01*
X114666517Y-68299900D01*
X114734638Y-68319902D01*
X114755612Y-68336805D01*
X115816472Y-69397665D01*
X115850498Y-69459977D01*
X115845433Y-69530792D01*
X115802886Y-69587628D01*
X115785168Y-69598725D01*
X115759787Y-69611825D01*
X115759780Y-69611830D01*
X115753039Y-69615309D01*
X115623815Y-69728039D01*
X115525210Y-69868339D01*
X115462918Y-70028109D01*
X115461926Y-70035642D01*
X115461926Y-70035643D01*
X115447729Y-70143483D01*
X115440535Y-70198126D01*
X115447483Y-70261056D01*
X115451187Y-70294605D01*
X115459353Y-70368575D01*
X115518285Y-70529615D01*
X115522522Y-70535921D01*
X115522524Y-70535924D01*
X115566821Y-70601844D01*
X115613930Y-70671949D01*
X115677348Y-70729655D01*
X115717279Y-70765989D01*
X115740765Y-70787360D01*
X115891468Y-70869185D01*
X116057339Y-70912701D01*
X116144786Y-70914074D01*
X116221203Y-70915275D01*
X116221206Y-70915275D01*
X116228802Y-70915394D01*
X116236206Y-70913698D01*
X116236208Y-70913698D01*
X116299046Y-70899306D01*
X116395959Y-70877110D01*
X116549158Y-70800059D01*
X116554929Y-70795130D01*
X116554932Y-70795128D01*
X116673778Y-70693623D01*
X116679555Y-70688689D01*
X116771943Y-70560119D01*
X116827937Y-70516473D01*
X116898640Y-70510027D01*
X116963359Y-70544552D01*
X118389395Y-71970588D01*
X118423421Y-72032900D01*
X118426300Y-72059683D01*
X118426300Y-72358481D01*
X118406298Y-72426602D01*
X118352642Y-72473095D01*
X118282368Y-72483199D01*
X118269605Y-72480685D01*
X118130622Y-72445775D01*
X118130618Y-72445775D01*
X118123251Y-72443924D01*
X118115652Y-72443884D01*
X118115650Y-72443884D01*
X118044194Y-72443510D01*
X117951769Y-72443026D01*
X117944389Y-72444798D01*
X117944387Y-72444798D01*
X117792402Y-72481286D01*
X117792398Y-72481287D01*
X117785023Y-72483058D01*
X117632639Y-72561709D01*
X117503415Y-72674439D01*
X117404810Y-72814739D01*
X117342518Y-72974509D01*
X117341526Y-72982042D01*
X117341526Y-72982043D01*
X117322907Y-73123471D01*
X117320135Y-73144526D01*
X117325273Y-73191065D01*
X117334664Y-73276124D01*
X117338953Y-73314975D01*
X117397885Y-73476015D01*
X117402122Y-73482321D01*
X117402124Y-73482324D01*
X117425946Y-73517774D01*
X117493530Y-73618349D01*
X117620365Y-73733760D01*
X117771068Y-73815585D01*
X117936939Y-73859101D01*
X118024386Y-73860474D01*
X118100803Y-73861675D01*
X118100806Y-73861675D01*
X118108402Y-73861794D01*
X118115806Y-73860098D01*
X118115808Y-73860098D01*
X118272171Y-73824286D01*
X118343037Y-73828575D01*
X118400336Y-73870497D01*
X118425873Y-73936742D01*
X118426300Y-73947106D01*
X118426300Y-74484066D01*
X118406298Y-74552187D01*
X118352642Y-74598680D01*
X118282368Y-74608784D01*
X118224735Y-74584892D01*
X118203492Y-74568971D01*
X118203490Y-74568970D01*
X118196305Y-74563585D01*
X118059916Y-74512455D01*
X117997734Y-74505700D01*
X116901466Y-74505700D01*
X116839284Y-74512455D01*
X116702895Y-74563585D01*
X116586339Y-74650939D01*
X116498985Y-74767495D01*
X116495833Y-74775903D01*
X116468456Y-74848930D01*
X116425814Y-74905694D01*
X116359252Y-74930394D01*
X116350474Y-74930700D01*
X113933483Y-74930700D01*
X113865362Y-74910698D01*
X113844388Y-74893795D01*
X112133520Y-73182927D01*
X112101053Y-73123471D01*
X112100226Y-73123674D01*
X112098415Y-73116300D01*
X112097502Y-73108758D01*
X112036887Y-72948344D01*
X112024725Y-72930648D01*
X111944059Y-72813278D01*
X111944058Y-72813276D01*
X111939757Y-72807019D01*
X111926207Y-72794946D01*
X111817393Y-72697996D01*
X111817390Y-72697994D01*
X111811721Y-72692943D01*
X111660169Y-72612700D01*
X111610066Y-72600115D01*
X111501222Y-72572775D01*
X111501218Y-72572775D01*
X111493851Y-72570924D01*
X111486252Y-72570884D01*
X111486250Y-72570884D01*
X111414794Y-72570510D01*
X111322369Y-72570026D01*
X111314989Y-72571798D01*
X111314987Y-72571798D01*
X111265712Y-72583628D01*
X111155623Y-72610058D01*
X111153890Y-72610953D01*
X111085472Y-72615782D01*
X111077000Y-72613246D01*
X111075969Y-72612700D01*
X111071045Y-72611463D01*
X111071041Y-72611462D01*
X110917022Y-72572775D01*
X110917018Y-72572775D01*
X110909651Y-72570924D01*
X110902052Y-72570884D01*
X110902050Y-72570884D01*
X110827875Y-72570496D01*
X110738169Y-72570026D01*
X110730783Y-72571799D01*
X110729065Y-72571998D01*
X110659097Y-72559958D01*
X110630765Y-72540909D01*
X110521993Y-72443996D01*
X110521990Y-72443994D01*
X110516321Y-72438943D01*
X110508325Y-72434709D01*
X110371481Y-72362254D01*
X110371482Y-72362254D01*
X110364769Y-72358700D01*
X110347196Y-72354286D01*
X110205822Y-72318775D01*
X110205818Y-72318775D01*
X110198451Y-72316924D01*
X110190852Y-72316884D01*
X110190850Y-72316884D01*
X110119394Y-72316510D01*
X110026969Y-72316026D01*
X110019589Y-72317798D01*
X110019587Y-72317798D01*
X109867602Y-72354286D01*
X109867598Y-72354287D01*
X109860223Y-72356058D01*
X109846750Y-72363012D01*
X109773583Y-72400776D01*
X109703875Y-72414245D01*
X109637952Y-72387890D01*
X109626698Y-72377905D01*
X109611805Y-72363012D01*
X109577779Y-72300700D01*
X109574900Y-72273917D01*
X109574900Y-72146949D01*
X109598577Y-72073423D01*
X109602768Y-72067591D01*
X109616824Y-72048030D01*
X109680785Y-71888920D01*
X109697142Y-71773987D01*
X109704366Y-71723231D01*
X109704366Y-71723227D01*
X109704947Y-71719147D01*
X109705104Y-71704200D01*
X109699709Y-71659622D01*
X109685415Y-71541499D01*
X109685414Y-71541496D01*
X109684502Y-71533958D01*
X109660914Y-71471532D01*
X109626571Y-71380647D01*
X109623887Y-71373544D01*
X109570228Y-71295469D01*
X109531059Y-71238478D01*
X109531058Y-71238476D01*
X109526757Y-71232219D01*
X109521086Y-71227166D01*
X109404393Y-71123196D01*
X109404390Y-71123194D01*
X109398721Y-71118143D01*
X109247169Y-71037900D01*
X109212517Y-71029196D01*
X109088222Y-70997975D01*
X109088218Y-70997975D01*
X109080851Y-70996124D01*
X109073252Y-70996084D01*
X109073250Y-70996084D01*
X109001794Y-70995710D01*
X108909369Y-70995226D01*
X108901989Y-70996998D01*
X108901987Y-70996998D01*
X108842240Y-71011342D01*
X108771332Y-71007795D01*
X108713598Y-70966475D01*
X108687368Y-70900501D01*
X108700971Y-70830820D01*
X108723731Y-70799728D01*
X109156120Y-70367339D01*
X109218432Y-70333313D01*
X109247192Y-70330450D01*
X109287003Y-70331075D01*
X109287006Y-70331075D01*
X109294602Y-70331194D01*
X109302006Y-70329498D01*
X109302008Y-70329498D01*
X109364846Y-70315106D01*
X109461759Y-70292910D01*
X109614958Y-70215859D01*
X109620729Y-70210930D01*
X109620732Y-70210928D01*
X109739578Y-70109423D01*
X109745355Y-70104489D01*
X109845424Y-69965230D01*
X109909385Y-69806120D01*
X109919139Y-69737585D01*
X109932966Y-69640431D01*
X109932966Y-69640427D01*
X109933547Y-69636347D01*
X109933704Y-69621400D01*
X109922739Y-69530792D01*
X109914015Y-69458699D01*
X109914014Y-69458696D01*
X109913102Y-69451158D01*
X109852487Y-69290744D01*
X109755357Y-69149419D01*
X109749686Y-69144366D01*
X109632993Y-69040396D01*
X109632990Y-69040394D01*
X109627321Y-69035343D01*
X109619325Y-69031109D01*
X109482481Y-68958654D01*
X109482482Y-68958654D01*
X109475769Y-68955100D01*
X109458196Y-68950686D01*
X109316822Y-68915175D01*
X109316818Y-68915175D01*
X109309451Y-68913324D01*
X109301852Y-68913284D01*
X109301850Y-68913284D01*
X109230394Y-68912910D01*
X109137969Y-68912426D01*
X109130589Y-68914198D01*
X109130587Y-68914198D01*
X108978602Y-68950686D01*
X108978598Y-68950687D01*
X108971223Y-68952458D01*
X108818839Y-69031109D01*
X108689615Y-69143839D01*
X108602192Y-69268229D01*
X108588200Y-69284873D01*
X107069593Y-70803480D01*
X107057203Y-70814347D01*
X107033143Y-70832809D01*
X106975323Y-70908162D01*
X106939614Y-70954699D01*
X106880819Y-71096642D01*
X106860765Y-71248966D01*
X106861843Y-71257154D01*
X106864722Y-71279022D01*
X106865800Y-71295469D01*
X106865800Y-71604931D01*
X106864722Y-71621378D01*
X106860765Y-71651434D01*
X106865800Y-71689678D01*
X106880819Y-71803758D01*
X106939614Y-71945701D01*
X107018134Y-72048030D01*
X107028491Y-72061528D01*
X107054091Y-72127748D01*
X107054528Y-72138232D01*
X107054528Y-76157700D01*
X107034526Y-76225821D01*
X106980870Y-76272314D01*
X106928528Y-76283700D01*
X106414894Y-76283700D01*
X106352712Y-76290455D01*
X106216323Y-76341585D01*
X106099767Y-76428939D01*
X106094386Y-76436119D01*
X106094385Y-76436120D01*
X106015197Y-76541780D01*
X105958338Y-76584295D01*
X105887519Y-76589321D01*
X105825226Y-76555261D01*
X105813545Y-76541780D01*
X105734357Y-76436120D01*
X105734356Y-76436119D01*
X105728975Y-76428939D01*
X105612419Y-76341585D01*
X105476030Y-76290455D01*
X105413848Y-76283700D01*
X104317580Y-76283700D01*
X104255398Y-76290455D01*
X104119009Y-76341585D01*
X104002453Y-76428939D01*
X103997072Y-76436119D01*
X103997071Y-76436120D01*
X103917883Y-76541780D01*
X103861024Y-76584295D01*
X103790205Y-76589321D01*
X103727912Y-76555261D01*
X103716231Y-76541780D01*
X103637043Y-76436120D01*
X103637042Y-76436119D01*
X103631661Y-76428939D01*
X103515105Y-76341585D01*
X103378716Y-76290455D01*
X103316534Y-76283700D01*
X102220266Y-76283700D01*
X102158084Y-76290455D01*
X102021695Y-76341585D01*
X101905139Y-76428939D01*
X101899758Y-76436119D01*
X101899757Y-76436120D01*
X101820569Y-76541780D01*
X101763710Y-76584295D01*
X101692891Y-76589321D01*
X101630598Y-76555261D01*
X101618917Y-76541780D01*
X101539729Y-76436120D01*
X101539728Y-76436119D01*
X101534347Y-76428939D01*
X101417791Y-76341585D01*
X101281402Y-76290455D01*
X101219220Y-76283700D01*
X100122952Y-76283700D01*
X100060770Y-76290455D01*
X99924381Y-76341585D01*
X99807825Y-76428939D01*
X99720471Y-76545495D01*
X99669341Y-76681884D01*
X99662586Y-76744066D01*
X99662586Y-77840334D01*
X99669341Y-77902516D01*
X99720471Y-78038905D01*
X99807825Y-78155461D01*
X99924381Y-78242815D01*
X100060770Y-78293945D01*
X100122952Y-78300700D01*
X101219220Y-78300700D01*
X101281402Y-78293945D01*
X101417791Y-78242815D01*
X101534347Y-78155461D01*
X101584685Y-78088295D01*
X101618917Y-78042620D01*
X101675776Y-78000105D01*
X101746595Y-77995079D01*
X101808888Y-78029139D01*
X101820569Y-78042620D01*
X101854801Y-78088295D01*
X101905139Y-78155461D01*
X102021695Y-78242815D01*
X102158084Y-78293945D01*
X102220266Y-78300700D01*
X103316534Y-78300700D01*
X103378716Y-78293945D01*
X103515105Y-78242815D01*
X103631661Y-78155461D01*
X103681999Y-78088295D01*
X103716231Y-78042620D01*
X103773090Y-78000105D01*
X103843909Y-77995079D01*
X103906202Y-78029139D01*
X103917883Y-78042620D01*
X103952115Y-78088295D01*
X104002453Y-78155461D01*
X104119009Y-78242815D01*
X104255398Y-78293945D01*
X104317580Y-78300700D01*
X105413848Y-78300700D01*
X105476030Y-78293945D01*
X105612419Y-78242815D01*
X105728975Y-78155461D01*
X105779313Y-78088295D01*
X105813545Y-78042620D01*
X105870404Y-78000105D01*
X105941223Y-77995079D01*
X106003516Y-78029139D01*
X106015197Y-78042620D01*
X106049429Y-78088295D01*
X106099767Y-78155461D01*
X106216323Y-78242815D01*
X106352712Y-78293945D01*
X106414894Y-78300700D01*
X106928528Y-78300700D01*
X106996649Y-78320702D01*
X107043142Y-78374358D01*
X107054528Y-78426700D01*
X107054528Y-79256500D01*
X107034526Y-79324621D01*
X106980870Y-79371114D01*
X106928528Y-79382500D01*
X106414894Y-79382500D01*
X106352712Y-79389255D01*
X106216323Y-79440385D01*
X106099767Y-79527739D01*
X106094386Y-79534919D01*
X106094385Y-79534920D01*
X106015197Y-79640580D01*
X105958338Y-79683095D01*
X105887519Y-79688121D01*
X105825226Y-79654061D01*
X105813545Y-79640580D01*
X105734357Y-79534920D01*
X105734356Y-79534919D01*
X105728975Y-79527739D01*
X105612419Y-79440385D01*
X105476030Y-79389255D01*
X105413848Y-79382500D01*
X104317580Y-79382500D01*
X104255398Y-79389255D01*
X104119009Y-79440385D01*
X104002453Y-79527739D01*
X103997072Y-79534919D01*
X103997071Y-79534920D01*
X103917883Y-79640580D01*
X103861024Y-79683095D01*
X103790205Y-79688121D01*
X103727912Y-79654061D01*
X103716231Y-79640580D01*
X103637043Y-79534920D01*
X103637042Y-79534919D01*
X103631661Y-79527739D01*
X103515105Y-79440385D01*
X103378716Y-79389255D01*
X103316534Y-79382500D01*
X102220266Y-79382500D01*
X102158084Y-79389255D01*
X102021695Y-79440385D01*
X101905139Y-79527739D01*
X101899758Y-79534919D01*
X101899757Y-79534920D01*
X101820569Y-79640580D01*
X101763710Y-79683095D01*
X101692891Y-79688121D01*
X101630598Y-79654061D01*
X101618917Y-79640580D01*
X101539729Y-79534920D01*
X101539728Y-79534919D01*
X101534347Y-79527739D01*
X101417791Y-79440385D01*
X101281402Y-79389255D01*
X101219220Y-79382500D01*
X100122952Y-79382500D01*
X100060770Y-79389255D01*
X99924381Y-79440385D01*
X99807825Y-79527739D01*
X99720471Y-79644295D01*
X99669341Y-79780684D01*
X99662586Y-79842866D01*
X99662586Y-80939134D01*
X99669341Y-81001316D01*
X99720471Y-81137705D01*
X99732785Y-81154135D01*
X99757633Y-81220639D01*
X99742581Y-81290022D01*
X99692408Y-81340253D01*
X99631959Y-81355700D01*
X99491300Y-81355700D01*
X99423179Y-81335698D01*
X99376686Y-81282042D01*
X99365300Y-81229700D01*
X99365300Y-74077669D01*
X99906201Y-74077669D01*
X99906571Y-74084490D01*
X99912095Y-74135352D01*
X99915721Y-74150604D01*
X99960876Y-74271054D01*
X99969414Y-74286649D01*
X100045915Y-74388724D01*
X100058476Y-74401285D01*
X100160551Y-74477786D01*
X100176146Y-74486324D01*
X100296594Y-74531478D01*
X100311849Y-74535105D01*
X100362714Y-74540631D01*
X100369528Y-74541000D01*
X100642085Y-74541000D01*
X100657324Y-74536525D01*
X100658529Y-74535135D01*
X100660200Y-74527452D01*
X100660200Y-74522884D01*
X101168200Y-74522884D01*
X101172675Y-74538123D01*
X101174065Y-74539328D01*
X101181748Y-74540999D01*
X101458869Y-74540999D01*
X101465690Y-74540629D01*
X101516552Y-74535105D01*
X101531804Y-74531479D01*
X101652254Y-74486324D01*
X101667849Y-74477786D01*
X101769924Y-74401285D01*
X101782485Y-74388724D01*
X101858986Y-74286649D01*
X101867524Y-74271054D01*
X101912678Y-74150606D01*
X101916305Y-74135351D01*
X101921831Y-74084486D01*
X101922200Y-74077672D01*
X101922200Y-73805115D01*
X101917725Y-73789876D01*
X101916335Y-73788671D01*
X101908652Y-73787000D01*
X101186315Y-73787000D01*
X101171076Y-73791475D01*
X101169871Y-73792865D01*
X101168200Y-73800548D01*
X101168200Y-74522884D01*
X100660200Y-74522884D01*
X100660200Y-73805115D01*
X100655725Y-73789876D01*
X100654335Y-73788671D01*
X100646652Y-73787000D01*
X99924316Y-73787000D01*
X99909077Y-73791475D01*
X99907872Y-73792865D01*
X99906201Y-73800548D01*
X99906201Y-74077669D01*
X99365300Y-74077669D01*
X99365300Y-73260885D01*
X99906200Y-73260885D01*
X99910675Y-73276124D01*
X99912065Y-73277329D01*
X99919748Y-73279000D01*
X100642085Y-73279000D01*
X100657324Y-73274525D01*
X100658529Y-73273135D01*
X100660200Y-73265452D01*
X100660200Y-73260885D01*
X101168200Y-73260885D01*
X101172675Y-73276124D01*
X101174065Y-73277329D01*
X101181748Y-73279000D01*
X101904084Y-73279000D01*
X101919323Y-73274525D01*
X101920528Y-73273135D01*
X101922199Y-73265452D01*
X101922199Y-72988331D01*
X101921829Y-72981510D01*
X101916305Y-72930648D01*
X101912679Y-72915396D01*
X101867524Y-72794946D01*
X101858986Y-72779351D01*
X101782485Y-72677276D01*
X101769924Y-72664715D01*
X101667849Y-72588214D01*
X101652254Y-72579676D01*
X101531806Y-72534522D01*
X101516551Y-72530895D01*
X101465686Y-72525369D01*
X101458872Y-72525000D01*
X101186315Y-72525000D01*
X101171076Y-72529475D01*
X101169871Y-72530865D01*
X101168200Y-72538548D01*
X101168200Y-73260885D01*
X100660200Y-73260885D01*
X100660200Y-72543116D01*
X100655725Y-72527877D01*
X100654335Y-72526672D01*
X100646652Y-72525001D01*
X100369531Y-72525001D01*
X100362710Y-72525371D01*
X100311848Y-72530895D01*
X100296596Y-72534521D01*
X100176146Y-72579676D01*
X100160551Y-72588214D01*
X100058476Y-72664715D01*
X100045915Y-72677276D01*
X99969414Y-72779351D01*
X99960876Y-72794946D01*
X99915722Y-72915394D01*
X99912095Y-72930649D01*
X99906569Y-72981514D01*
X99906200Y-72988328D01*
X99906200Y-73260885D01*
X99365300Y-73260885D01*
X99365300Y-71236334D01*
X99829500Y-71236334D01*
X99836255Y-71298516D01*
X99887385Y-71434905D01*
X99974739Y-71551461D01*
X100091295Y-71638815D01*
X100227684Y-71689945D01*
X100289866Y-71696700D01*
X101386134Y-71696700D01*
X101448316Y-71689945D01*
X101584705Y-71638815D01*
X101701261Y-71551461D01*
X101788615Y-71434905D01*
X101839745Y-71298516D01*
X101846500Y-71236334D01*
X101846500Y-70140066D01*
X101839745Y-70077884D01*
X101788615Y-69941495D01*
X101701261Y-69824939D01*
X101584705Y-69737585D01*
X101448316Y-69686455D01*
X101386134Y-69679700D01*
X100289866Y-69679700D01*
X100227684Y-69686455D01*
X100091295Y-69737585D01*
X99974739Y-69824939D01*
X99887385Y-69941495D01*
X99836255Y-70077884D01*
X99829500Y-70140066D01*
X99829500Y-71236334D01*
X99365300Y-71236334D01*
X99365300Y-68337269D01*
X99804601Y-68337269D01*
X99804971Y-68344090D01*
X99810495Y-68394952D01*
X99814121Y-68410204D01*
X99859276Y-68530654D01*
X99867814Y-68546249D01*
X99944315Y-68648324D01*
X99956876Y-68660885D01*
X100058951Y-68737386D01*
X100074546Y-68745924D01*
X100194994Y-68791078D01*
X100210249Y-68794705D01*
X100261114Y-68800231D01*
X100267928Y-68800600D01*
X100540485Y-68800600D01*
X100555724Y-68796125D01*
X100556929Y-68794735D01*
X100558600Y-68787052D01*
X100558600Y-68782484D01*
X101066600Y-68782484D01*
X101071075Y-68797723D01*
X101072465Y-68798928D01*
X101080148Y-68800599D01*
X101357269Y-68800599D01*
X101364090Y-68800229D01*
X101414952Y-68794705D01*
X101430204Y-68791079D01*
X101559062Y-68742772D01*
X101559716Y-68744516D01*
X101618263Y-68731709D01*
X101684812Y-68756442D01*
X101727425Y-68813227D01*
X101734731Y-68870568D01*
X101727896Y-68935600D01*
X101728586Y-68942165D01*
X101729946Y-68955100D01*
X101747858Y-69125528D01*
X101806873Y-69307156D01*
X101902360Y-69472544D01*
X102030147Y-69614466D01*
X102184648Y-69726718D01*
X102190676Y-69729402D01*
X102190678Y-69729403D01*
X102346103Y-69798602D01*
X102359112Y-69804394D01*
X102430453Y-69819558D01*
X102539456Y-69842728D01*
X102539461Y-69842728D01*
X102545913Y-69844100D01*
X102736887Y-69844100D01*
X102743339Y-69842728D01*
X102743344Y-69842728D01*
X102852347Y-69819558D01*
X102923688Y-69804394D01*
X102936697Y-69798602D01*
X103092122Y-69729403D01*
X103092124Y-69729402D01*
X103098152Y-69726718D01*
X103252653Y-69614466D01*
X103380440Y-69472544D01*
X103475927Y-69307156D01*
X103534942Y-69125528D01*
X103552855Y-68955100D01*
X103554214Y-68942165D01*
X103554904Y-68935600D01*
X103540676Y-68800229D01*
X103535632Y-68752235D01*
X103535632Y-68752233D01*
X103534942Y-68745672D01*
X103475927Y-68564044D01*
X103380440Y-68398656D01*
X103372291Y-68389605D01*
X103257075Y-68261645D01*
X103257074Y-68261644D01*
X103252653Y-68256734D01*
X103129693Y-68167398D01*
X103103494Y-68148363D01*
X103103493Y-68148362D01*
X103098152Y-68144482D01*
X103092124Y-68141798D01*
X103092122Y-68141797D01*
X102929719Y-68069491D01*
X102929718Y-68069491D01*
X102923688Y-68066806D01*
X102817148Y-68044160D01*
X102743344Y-68028472D01*
X102743339Y-68028472D01*
X102736887Y-68027100D01*
X102545913Y-68027100D01*
X102539461Y-68028472D01*
X102539456Y-68028472D01*
X102465652Y-68044160D01*
X102359112Y-68066806D01*
X102353082Y-68069491D01*
X102353081Y-68069491D01*
X102190678Y-68141797D01*
X102190676Y-68141798D01*
X102184648Y-68144482D01*
X102179307Y-68148362D01*
X102179306Y-68148363D01*
X102041892Y-68248201D01*
X102030147Y-68256734D01*
X102029185Y-68257802D01*
X101966908Y-68287693D01*
X101896454Y-68278932D01*
X101841921Y-68233471D01*
X101820600Y-68163340D01*
X101820600Y-68064715D01*
X101816125Y-68049476D01*
X101814735Y-68048271D01*
X101807052Y-68046600D01*
X101084715Y-68046600D01*
X101069476Y-68051075D01*
X101068271Y-68052465D01*
X101066600Y-68060148D01*
X101066600Y-68782484D01*
X100558600Y-68782484D01*
X100558600Y-68064715D01*
X100554125Y-68049476D01*
X100552735Y-68048271D01*
X100545052Y-68046600D01*
X99822716Y-68046600D01*
X99807477Y-68051075D01*
X99806272Y-68052465D01*
X99804601Y-68060148D01*
X99804601Y-68337269D01*
X99365300Y-68337269D01*
X99365300Y-67520485D01*
X99804600Y-67520485D01*
X99809075Y-67535724D01*
X99810465Y-67536929D01*
X99818148Y-67538600D01*
X100540485Y-67538600D01*
X100555724Y-67534125D01*
X100556929Y-67532735D01*
X100558600Y-67525052D01*
X100558600Y-67520485D01*
X101066600Y-67520485D01*
X101071075Y-67535724D01*
X101072465Y-67536929D01*
X101080148Y-67538600D01*
X101802484Y-67538600D01*
X101817723Y-67534125D01*
X101818928Y-67532735D01*
X101820599Y-67525052D01*
X101820599Y-67247931D01*
X101820229Y-67241110D01*
X101814705Y-67190248D01*
X101811079Y-67174996D01*
X101765924Y-67054546D01*
X101757386Y-67038951D01*
X101680885Y-66936876D01*
X101668324Y-66924315D01*
X101566249Y-66847814D01*
X101550654Y-66839276D01*
X101430206Y-66794122D01*
X101414951Y-66790495D01*
X101364086Y-66784969D01*
X101357272Y-66784600D01*
X101084715Y-66784600D01*
X101069476Y-66789075D01*
X101068271Y-66790465D01*
X101066600Y-66798148D01*
X101066600Y-67520485D01*
X100558600Y-67520485D01*
X100558600Y-66802716D01*
X100554125Y-66787477D01*
X100552735Y-66786272D01*
X100545052Y-66784601D01*
X100267931Y-66784601D01*
X100261110Y-66784971D01*
X100210248Y-66790495D01*
X100194996Y-66794121D01*
X100074546Y-66839276D01*
X100058951Y-66847814D01*
X99956876Y-66924315D01*
X99944315Y-66936876D01*
X99867814Y-67038951D01*
X99859276Y-67054546D01*
X99814122Y-67174994D01*
X99810495Y-67190249D01*
X99804969Y-67241114D01*
X99804600Y-67247928D01*
X99804600Y-67520485D01*
X99365300Y-67520485D01*
X99365300Y-65622934D01*
X99778700Y-65622934D01*
X99785455Y-65685116D01*
X99836585Y-65821505D01*
X99923939Y-65938061D01*
X100040495Y-66025415D01*
X100176884Y-66076545D01*
X100239066Y-66083300D01*
X101335334Y-66083300D01*
X101397516Y-66076545D01*
X101533905Y-66025415D01*
X101650461Y-65938061D01*
X101737815Y-65821505D01*
X101788945Y-65685116D01*
X101795700Y-65622934D01*
X101795700Y-64526666D01*
X101788945Y-64464484D01*
X101737815Y-64328095D01*
X101650461Y-64211539D01*
X101533905Y-64124185D01*
X101397516Y-64073055D01*
X101335334Y-64066300D01*
X100239066Y-64066300D01*
X100176884Y-64073055D01*
X100040495Y-64124185D01*
X99923939Y-64211539D01*
X99836585Y-64328095D01*
X99785455Y-64464484D01*
X99778700Y-64526666D01*
X99778700Y-65622934D01*
X99365300Y-65622934D01*
X99365300Y-62850869D01*
X99804601Y-62850869D01*
X99804971Y-62857690D01*
X99810495Y-62908552D01*
X99814121Y-62923804D01*
X99859276Y-63044254D01*
X99867814Y-63059849D01*
X99944315Y-63161924D01*
X99956876Y-63174485D01*
X100058951Y-63250986D01*
X100074546Y-63259524D01*
X100194994Y-63304678D01*
X100210249Y-63308305D01*
X100261114Y-63313831D01*
X100267928Y-63314200D01*
X100540485Y-63314200D01*
X100555724Y-63309725D01*
X100556929Y-63308335D01*
X100558600Y-63300652D01*
X100558600Y-63296084D01*
X101066600Y-63296084D01*
X101071075Y-63311323D01*
X101072465Y-63312528D01*
X101080148Y-63314199D01*
X101357269Y-63314199D01*
X101364090Y-63313829D01*
X101414952Y-63308305D01*
X101430204Y-63304679D01*
X101550654Y-63259524D01*
X101566249Y-63250986D01*
X101668324Y-63174485D01*
X101673009Y-63169800D01*
X103759896Y-63169800D01*
X103760586Y-63176365D01*
X103775588Y-63319098D01*
X103779858Y-63359728D01*
X103838873Y-63541356D01*
X103934360Y-63706744D01*
X104062147Y-63848666D01*
X104216648Y-63960918D01*
X104222676Y-63963602D01*
X104222678Y-63963603D01*
X104385081Y-64035909D01*
X104391112Y-64038594D01*
X104484512Y-64058447D01*
X104571456Y-64076928D01*
X104571461Y-64076928D01*
X104577913Y-64078300D01*
X104768887Y-64078300D01*
X104775339Y-64076928D01*
X104775344Y-64076928D01*
X104862288Y-64058447D01*
X104955688Y-64038594D01*
X104961719Y-64035909D01*
X105124122Y-63963603D01*
X105124124Y-63963602D01*
X105130152Y-63960918D01*
X105284653Y-63848666D01*
X105412440Y-63706744D01*
X105507927Y-63541356D01*
X105566942Y-63359728D01*
X105571213Y-63319098D01*
X105586214Y-63176365D01*
X105586904Y-63169800D01*
X105566942Y-62979872D01*
X105507927Y-62798244D01*
X105412440Y-62632856D01*
X105284653Y-62490934D01*
X105130152Y-62378682D01*
X105124124Y-62375998D01*
X105124122Y-62375997D01*
X104961719Y-62303691D01*
X104961718Y-62303691D01*
X104955688Y-62301006D01*
X104862287Y-62281153D01*
X104775344Y-62262672D01*
X104775339Y-62262672D01*
X104768887Y-62261300D01*
X104577913Y-62261300D01*
X104571461Y-62262672D01*
X104571456Y-62262672D01*
X104484513Y-62281153D01*
X104391112Y-62301006D01*
X104385082Y-62303691D01*
X104385081Y-62303691D01*
X104222678Y-62375997D01*
X104222676Y-62375998D01*
X104216648Y-62378682D01*
X104062147Y-62490934D01*
X103934360Y-62632856D01*
X103838873Y-62798244D01*
X103779858Y-62979872D01*
X103759896Y-63169800D01*
X101673009Y-63169800D01*
X101680885Y-63161924D01*
X101757386Y-63059849D01*
X101765924Y-63044254D01*
X101811078Y-62923806D01*
X101814705Y-62908551D01*
X101820231Y-62857686D01*
X101820600Y-62850872D01*
X101820600Y-62578315D01*
X101816125Y-62563076D01*
X101814735Y-62561871D01*
X101807052Y-62560200D01*
X101084715Y-62560200D01*
X101069476Y-62564675D01*
X101068271Y-62566065D01*
X101066600Y-62573748D01*
X101066600Y-63296084D01*
X100558600Y-63296084D01*
X100558600Y-62578315D01*
X100554125Y-62563076D01*
X100552735Y-62561871D01*
X100545052Y-62560200D01*
X99822716Y-62560200D01*
X99807477Y-62564675D01*
X99806272Y-62566065D01*
X99804601Y-62573748D01*
X99804601Y-62850869D01*
X99365300Y-62850869D01*
X99365300Y-62034085D01*
X99804600Y-62034085D01*
X99809075Y-62049324D01*
X99810465Y-62050529D01*
X99818148Y-62052200D01*
X100540485Y-62052200D01*
X100555724Y-62047725D01*
X100556929Y-62046335D01*
X100558600Y-62038652D01*
X100558600Y-62034085D01*
X101066600Y-62034085D01*
X101071075Y-62049324D01*
X101072465Y-62050529D01*
X101080148Y-62052200D01*
X101802484Y-62052200D01*
X101817723Y-62047725D01*
X101818928Y-62046335D01*
X101820599Y-62038652D01*
X101820599Y-61761531D01*
X101820229Y-61754710D01*
X101814705Y-61703848D01*
X101811079Y-61688596D01*
X101765924Y-61568146D01*
X101757386Y-61552551D01*
X101680885Y-61450476D01*
X101668324Y-61437915D01*
X101566249Y-61361414D01*
X101550654Y-61352876D01*
X101430206Y-61307722D01*
X101414951Y-61304095D01*
X101364086Y-61298569D01*
X101357272Y-61298200D01*
X101084715Y-61298200D01*
X101069476Y-61302675D01*
X101068271Y-61304065D01*
X101066600Y-61311748D01*
X101066600Y-62034085D01*
X100558600Y-62034085D01*
X100558600Y-61316316D01*
X100554125Y-61301077D01*
X100552735Y-61299872D01*
X100545052Y-61298201D01*
X100267931Y-61298201D01*
X100261110Y-61298571D01*
X100210248Y-61304095D01*
X100194996Y-61307721D01*
X100074546Y-61352876D01*
X100058951Y-61361414D01*
X99956876Y-61437915D01*
X99944315Y-61450476D01*
X99867814Y-61552551D01*
X99859276Y-61568146D01*
X99814122Y-61688594D01*
X99810495Y-61703849D01*
X99804969Y-61754714D01*
X99804600Y-61761528D01*
X99804600Y-62034085D01*
X99365300Y-62034085D01*
X99365300Y-60085734D01*
X99829500Y-60085734D01*
X99836255Y-60147916D01*
X99887385Y-60284305D01*
X99974739Y-60400861D01*
X100091295Y-60488215D01*
X100227684Y-60539345D01*
X100289866Y-60546100D01*
X101386134Y-60546100D01*
X101448316Y-60539345D01*
X101584705Y-60488215D01*
X101701261Y-60400861D01*
X101788615Y-60284305D01*
X101839745Y-60147916D01*
X101846500Y-60085734D01*
X101846500Y-58989466D01*
X101839745Y-58927284D01*
X101820969Y-58877200D01*
X102235896Y-58877200D01*
X102236586Y-58883765D01*
X102253485Y-59044547D01*
X102255858Y-59067128D01*
X102314873Y-59248756D01*
X102410360Y-59414144D01*
X102538147Y-59556066D01*
X102692648Y-59668318D01*
X102698676Y-59671002D01*
X102698678Y-59671003D01*
X102741387Y-59690018D01*
X102867112Y-59745994D01*
X102930587Y-59759486D01*
X103047456Y-59784328D01*
X103047461Y-59784328D01*
X103053913Y-59785700D01*
X103244887Y-59785700D01*
X103251339Y-59784328D01*
X103251344Y-59784328D01*
X103368213Y-59759486D01*
X103431688Y-59745994D01*
X103557413Y-59690018D01*
X103600122Y-59671003D01*
X103600124Y-59671002D01*
X103606152Y-59668318D01*
X103760653Y-59556066D01*
X103888440Y-59414144D01*
X103983927Y-59248756D01*
X104042942Y-59067128D01*
X104045316Y-59044547D01*
X104062214Y-58883765D01*
X104062904Y-58877200D01*
X104049219Y-58746996D01*
X104043632Y-58693835D01*
X104043632Y-58693833D01*
X104042942Y-58687272D01*
X104022124Y-58623200D01*
X107798496Y-58623200D01*
X107799186Y-58629765D01*
X107810819Y-58740443D01*
X107818458Y-58813128D01*
X107877473Y-58994756D01*
X107972960Y-59160144D01*
X107977378Y-59165051D01*
X107977379Y-59165052D01*
X108096325Y-59297155D01*
X108100747Y-59302066D01*
X108255248Y-59414318D01*
X108261276Y-59417002D01*
X108261278Y-59417003D01*
X108423681Y-59489309D01*
X108429712Y-59491994D01*
X108497247Y-59506349D01*
X108610056Y-59530328D01*
X108610061Y-59530328D01*
X108616513Y-59531700D01*
X108807487Y-59531700D01*
X108813939Y-59530328D01*
X108813944Y-59530328D01*
X108926753Y-59506349D01*
X108994288Y-59491994D01*
X109000319Y-59489309D01*
X109162722Y-59417003D01*
X109162724Y-59417002D01*
X109168752Y-59414318D01*
X109323253Y-59302066D01*
X109327675Y-59297155D01*
X109446621Y-59165052D01*
X109446622Y-59165051D01*
X109451040Y-59160144D01*
X109546527Y-58994756D01*
X109605542Y-58813128D01*
X109613182Y-58740443D01*
X109624814Y-58629765D01*
X109625504Y-58623200D01*
X109620097Y-58571757D01*
X109606232Y-58439835D01*
X109606232Y-58439833D01*
X109605542Y-58433272D01*
X109546527Y-58251644D01*
X109451040Y-58086256D01*
X109323253Y-57944334D01*
X109168752Y-57832082D01*
X109162724Y-57829398D01*
X109162722Y-57829397D01*
X109000319Y-57757091D01*
X109000318Y-57757091D01*
X108994288Y-57754406D01*
X108900888Y-57734553D01*
X108813944Y-57716072D01*
X108813939Y-57716072D01*
X108807487Y-57714700D01*
X108616513Y-57714700D01*
X108610061Y-57716072D01*
X108610056Y-57716072D01*
X108523112Y-57734553D01*
X108429712Y-57754406D01*
X108423682Y-57757091D01*
X108423681Y-57757091D01*
X108261278Y-57829397D01*
X108261276Y-57829398D01*
X108255248Y-57832082D01*
X108100747Y-57944334D01*
X107972960Y-58086256D01*
X107877473Y-58251644D01*
X107818458Y-58433272D01*
X107817768Y-58439833D01*
X107817768Y-58439835D01*
X107803903Y-58571757D01*
X107798496Y-58623200D01*
X104022124Y-58623200D01*
X103983927Y-58505644D01*
X103888440Y-58340256D01*
X103808654Y-58251644D01*
X103765075Y-58203245D01*
X103765074Y-58203244D01*
X103760653Y-58198334D01*
X103606152Y-58086082D01*
X103600124Y-58083398D01*
X103600122Y-58083397D01*
X103437719Y-58011091D01*
X103437718Y-58011091D01*
X103431688Y-58008406D01*
X103338287Y-57988553D01*
X103251344Y-57970072D01*
X103251339Y-57970072D01*
X103244887Y-57968700D01*
X103053913Y-57968700D01*
X103047461Y-57970072D01*
X103047456Y-57970072D01*
X102960513Y-57988553D01*
X102867112Y-58008406D01*
X102861082Y-58011091D01*
X102861081Y-58011091D01*
X102698678Y-58083397D01*
X102698676Y-58083398D01*
X102692648Y-58086082D01*
X102538147Y-58198334D01*
X102533726Y-58203244D01*
X102533725Y-58203245D01*
X102490147Y-58251644D01*
X102410360Y-58340256D01*
X102314873Y-58505644D01*
X102255858Y-58687272D01*
X102255168Y-58693833D01*
X102255168Y-58693835D01*
X102249581Y-58746996D01*
X102235896Y-58877200D01*
X101820969Y-58877200D01*
X101788615Y-58790895D01*
X101701261Y-58674339D01*
X101584705Y-58586985D01*
X101448316Y-58535855D01*
X101386134Y-58529100D01*
X100289866Y-58529100D01*
X100227684Y-58535855D01*
X100091295Y-58586985D01*
X99974739Y-58674339D01*
X99887385Y-58790895D01*
X99836255Y-58927284D01*
X99829500Y-58989466D01*
X99829500Y-60085734D01*
X99365300Y-60085734D01*
X99365300Y-57186669D01*
X99804601Y-57186669D01*
X99804971Y-57193490D01*
X99810495Y-57244352D01*
X99814121Y-57259604D01*
X99859276Y-57380054D01*
X99867814Y-57395649D01*
X99944315Y-57497724D01*
X99956876Y-57510285D01*
X100058951Y-57586786D01*
X100074546Y-57595324D01*
X100194994Y-57640478D01*
X100210249Y-57644105D01*
X100261114Y-57649631D01*
X100267928Y-57650000D01*
X100540485Y-57650000D01*
X100555724Y-57645525D01*
X100556929Y-57644135D01*
X100558600Y-57636452D01*
X100558600Y-57631884D01*
X101066600Y-57631884D01*
X101071075Y-57647123D01*
X101072465Y-57648328D01*
X101080148Y-57649999D01*
X101357269Y-57649999D01*
X101364090Y-57649629D01*
X101414952Y-57644105D01*
X101430204Y-57640479D01*
X101550654Y-57595324D01*
X101566249Y-57586786D01*
X101668324Y-57510285D01*
X101680885Y-57497724D01*
X101757386Y-57395649D01*
X101765924Y-57380054D01*
X101811078Y-57259606D01*
X101814705Y-57244351D01*
X101820231Y-57193486D01*
X101820600Y-57186672D01*
X101820600Y-56914115D01*
X101816125Y-56898876D01*
X101814735Y-56897671D01*
X101807052Y-56896000D01*
X101084715Y-56896000D01*
X101069476Y-56900475D01*
X101068271Y-56901865D01*
X101066600Y-56909548D01*
X101066600Y-57631884D01*
X100558600Y-57631884D01*
X100558600Y-56914115D01*
X100554125Y-56898876D01*
X100552735Y-56897671D01*
X100545052Y-56896000D01*
X99822716Y-56896000D01*
X99807477Y-56900475D01*
X99806272Y-56901865D01*
X99804601Y-56909548D01*
X99804601Y-57186669D01*
X99365300Y-57186669D01*
X99365300Y-56369885D01*
X99804600Y-56369885D01*
X99809075Y-56385124D01*
X99810465Y-56386329D01*
X99818148Y-56388000D01*
X101802484Y-56388000D01*
X101817723Y-56383525D01*
X101818928Y-56382135D01*
X101820599Y-56374452D01*
X101820599Y-56097331D01*
X101820229Y-56090510D01*
X101814705Y-56039648D01*
X101811079Y-56024396D01*
X101765924Y-55903946D01*
X101757386Y-55888351D01*
X101680885Y-55786276D01*
X101668324Y-55773715D01*
X101566249Y-55697214D01*
X101542782Y-55684366D01*
X101544025Y-55682095D01*
X101498143Y-55647627D01*
X101473445Y-55581065D01*
X101488654Y-55511717D01*
X101538941Y-55461599D01*
X101554910Y-55454307D01*
X101601695Y-55436768D01*
X101601696Y-55436767D01*
X101610105Y-55433615D01*
X101726661Y-55346261D01*
X101814015Y-55229705D01*
X101865145Y-55093316D01*
X101871900Y-55031134D01*
X101871900Y-53934866D01*
X101865145Y-53872684D01*
X101814015Y-53736295D01*
X101726661Y-53619739D01*
X101726209Y-53619400D01*
X103124896Y-53619400D01*
X103125586Y-53625965D01*
X103144004Y-53801198D01*
X103144858Y-53809328D01*
X103203873Y-53990956D01*
X103207176Y-53996678D01*
X103207177Y-53996679D01*
X103227204Y-54031366D01*
X103299360Y-54156344D01*
X103303778Y-54161251D01*
X103303779Y-54161252D01*
X103319056Y-54178219D01*
X103427147Y-54298266D01*
X103581648Y-54410518D01*
X103587676Y-54413202D01*
X103587678Y-54413203D01*
X103750081Y-54485509D01*
X103756112Y-54488194D01*
X103849513Y-54508047D01*
X103936456Y-54526528D01*
X103936461Y-54526528D01*
X103942913Y-54527900D01*
X104133887Y-54527900D01*
X104140339Y-54526528D01*
X104140344Y-54526528D01*
X104227288Y-54508047D01*
X104260789Y-54500926D01*
X108506335Y-54500926D01*
X108525153Y-54671375D01*
X108584085Y-54832415D01*
X108679730Y-54974749D01*
X108685346Y-54979859D01*
X108793770Y-55078517D01*
X108806565Y-55090160D01*
X108957268Y-55171985D01*
X108964610Y-55173911D01*
X108964612Y-55173912D01*
X109061359Y-55199293D01*
X109118481Y-55232074D01*
X110987195Y-57100788D01*
X111021221Y-57163100D01*
X111024100Y-57189883D01*
X111024100Y-59578366D01*
X111001186Y-59650817D01*
X110978610Y-59682939D01*
X110975850Y-59690018D01*
X110946326Y-59765744D01*
X110916318Y-59842709D01*
X110893935Y-60012726D01*
X110912753Y-60183175D01*
X110915362Y-60190306D01*
X110915363Y-60190308D01*
X110923288Y-60211964D01*
X110971685Y-60344215D01*
X111067330Y-60486549D01*
X111194165Y-60601960D01*
X111344868Y-60683785D01*
X111510739Y-60727301D01*
X111598186Y-60728674D01*
X111674603Y-60729875D01*
X111674606Y-60729875D01*
X111682202Y-60729994D01*
X111689606Y-60728298D01*
X111689608Y-60728298D01*
X111752446Y-60713906D01*
X111849359Y-60691710D01*
X112002558Y-60614659D01*
X112008329Y-60609730D01*
X112008332Y-60609728D01*
X112127178Y-60508223D01*
X112132955Y-60503289D01*
X112233024Y-60364030D01*
X112296985Y-60204920D01*
X112313464Y-60089131D01*
X112320566Y-60039231D01*
X112320566Y-60039227D01*
X112321147Y-60035147D01*
X112321304Y-60020200D01*
X112310836Y-59933699D01*
X112301615Y-59857499D01*
X112301614Y-59857496D01*
X112300702Y-59849958D01*
X112271565Y-59772847D01*
X112242771Y-59696647D01*
X112240087Y-59689544D01*
X112235788Y-59683289D01*
X112235786Y-59683285D01*
X112213260Y-59650510D01*
X112191100Y-59579143D01*
X112191100Y-56942501D01*
X112192178Y-56926053D01*
X112195057Y-56904187D01*
X112196135Y-56896000D01*
X112184553Y-56808030D01*
X112181945Y-56788215D01*
X112177159Y-56751864D01*
X112177159Y-56751863D01*
X112176081Y-56743676D01*
X112134507Y-56643309D01*
X112134507Y-56643307D01*
X112134506Y-56643307D01*
X112117286Y-56601732D01*
X112047239Y-56510446D01*
X112023757Y-56479843D01*
X111999697Y-56461381D01*
X111994390Y-56456726D01*
X124940135Y-56456726D01*
X124958953Y-56627175D01*
X124961562Y-56634306D01*
X124961563Y-56634308D01*
X124969488Y-56655964D01*
X125017885Y-56788215D01*
X125022122Y-56794521D01*
X125022124Y-56794524D01*
X125031200Y-56808030D01*
X125113530Y-56930549D01*
X125240365Y-57045960D01*
X125391068Y-57127785D01*
X125556939Y-57171301D01*
X125644386Y-57172674D01*
X125720803Y-57173875D01*
X125720806Y-57173875D01*
X125728402Y-57173994D01*
X125735806Y-57172298D01*
X125735808Y-57172298D01*
X125798646Y-57157906D01*
X125895559Y-57135710D01*
X126048758Y-57058659D01*
X126054529Y-57053730D01*
X126054532Y-57053728D01*
X126173378Y-56952223D01*
X126179155Y-56947289D01*
X126279224Y-56808030D01*
X126343185Y-56648920D01*
X126347354Y-56619625D01*
X126366766Y-56483231D01*
X126366766Y-56483227D01*
X126367347Y-56479147D01*
X126367504Y-56464200D01*
X126358283Y-56388000D01*
X126347815Y-56301499D01*
X126347814Y-56301496D01*
X126346902Y-56293958D01*
X126286287Y-56133544D01*
X126277475Y-56120723D01*
X126193459Y-55998478D01*
X126193458Y-55998476D01*
X126189157Y-55992219D01*
X126183486Y-55987166D01*
X126066793Y-55883196D01*
X126066790Y-55883194D01*
X126061121Y-55878143D01*
X126053125Y-55873909D01*
X125916281Y-55801454D01*
X125916282Y-55801454D01*
X125909569Y-55797900D01*
X125863292Y-55786276D01*
X125750622Y-55757975D01*
X125750618Y-55757975D01*
X125743251Y-55756124D01*
X125735652Y-55756084D01*
X125735650Y-55756084D01*
X125664194Y-55755710D01*
X125571769Y-55755226D01*
X125564389Y-55756998D01*
X125564387Y-55756998D01*
X125412402Y-55793486D01*
X125412398Y-55793487D01*
X125405023Y-55795258D01*
X125252639Y-55873909D01*
X125123415Y-55986639D01*
X125024810Y-56126939D01*
X124962518Y-56286709D01*
X124961526Y-56294242D01*
X124961526Y-56294243D01*
X124949562Y-56385124D01*
X124940135Y-56456726D01*
X111994390Y-56456726D01*
X111987307Y-56450514D01*
X110618727Y-55081934D01*
X123730900Y-55081934D01*
X123737655Y-55144116D01*
X123788785Y-55280505D01*
X123876139Y-55397061D01*
X123992695Y-55484415D01*
X124129084Y-55535545D01*
X124191266Y-55542300D01*
X125287534Y-55542300D01*
X125349716Y-55535545D01*
X125486105Y-55484415D01*
X125602661Y-55397061D01*
X125690015Y-55280505D01*
X125741145Y-55144116D01*
X125747900Y-55081934D01*
X125747900Y-53985666D01*
X125741145Y-53923484D01*
X125690015Y-53787095D01*
X125602661Y-53670539D01*
X125486105Y-53583185D01*
X125349716Y-53532055D01*
X125287534Y-53525300D01*
X124191266Y-53525300D01*
X124129084Y-53532055D01*
X123992695Y-53583185D01*
X123876139Y-53670539D01*
X123788785Y-53787095D01*
X123737655Y-53923484D01*
X123730900Y-53985666D01*
X123730900Y-55081934D01*
X110618727Y-55081934D01*
X109949120Y-54412327D01*
X109916653Y-54352871D01*
X109915826Y-54353074D01*
X109914015Y-54345700D01*
X109913102Y-54338158D01*
X109899496Y-54302149D01*
X109855171Y-54184847D01*
X109852487Y-54177744D01*
X109755357Y-54036419D01*
X109749686Y-54031366D01*
X109632993Y-53927396D01*
X109632990Y-53927394D01*
X109627321Y-53922343D01*
X109619325Y-53918109D01*
X109533532Y-53872684D01*
X109475769Y-53842100D01*
X109458196Y-53837686D01*
X109316822Y-53802175D01*
X109316818Y-53802175D01*
X109309451Y-53800324D01*
X109301852Y-53800284D01*
X109301850Y-53800284D01*
X109230394Y-53799910D01*
X109137969Y-53799426D01*
X109130589Y-53801198D01*
X109130587Y-53801198D01*
X108978602Y-53837686D01*
X108978598Y-53837687D01*
X108971223Y-53839458D01*
X108818839Y-53918109D01*
X108689615Y-54030839D01*
X108591010Y-54171139D01*
X108528718Y-54330909D01*
X108527726Y-54338442D01*
X108527726Y-54338443D01*
X108507831Y-54489566D01*
X108506335Y-54500926D01*
X104260789Y-54500926D01*
X104320688Y-54488194D01*
X104326719Y-54485509D01*
X104489122Y-54413203D01*
X104489124Y-54413202D01*
X104495152Y-54410518D01*
X104649653Y-54298266D01*
X104757744Y-54178219D01*
X104773021Y-54161252D01*
X104773022Y-54161251D01*
X104777440Y-54156344D01*
X104849596Y-54031366D01*
X104869623Y-53996679D01*
X104869624Y-53996678D01*
X104872927Y-53990956D01*
X104931942Y-53809328D01*
X104932797Y-53801198D01*
X104951214Y-53625965D01*
X104951904Y-53619400D01*
X104943015Y-53534829D01*
X104932632Y-53436035D01*
X104932632Y-53436033D01*
X104931942Y-53429472D01*
X104872927Y-53247844D01*
X104777440Y-53082456D01*
X104649653Y-52940534D01*
X104495152Y-52828282D01*
X104489124Y-52825598D01*
X104489122Y-52825597D01*
X104326719Y-52753291D01*
X104326718Y-52753291D01*
X104320688Y-52750606D01*
X104227288Y-52730753D01*
X104140344Y-52712272D01*
X104140339Y-52712272D01*
X104133887Y-52710900D01*
X103942913Y-52710900D01*
X103936461Y-52712272D01*
X103936456Y-52712272D01*
X103849512Y-52730753D01*
X103756112Y-52750606D01*
X103750082Y-52753291D01*
X103750081Y-52753291D01*
X103587678Y-52825597D01*
X103587676Y-52825598D01*
X103581648Y-52828282D01*
X103427147Y-52940534D01*
X103299360Y-53082456D01*
X103203873Y-53247844D01*
X103144858Y-53429472D01*
X103144168Y-53436033D01*
X103144168Y-53436035D01*
X103133785Y-53534829D01*
X103124896Y-53619400D01*
X101726209Y-53619400D01*
X101610105Y-53532385D01*
X101473716Y-53481255D01*
X101411534Y-53474500D01*
X100315266Y-53474500D01*
X100253084Y-53481255D01*
X100116695Y-53532385D01*
X100000139Y-53619739D01*
X99912785Y-53736295D01*
X99861655Y-53872684D01*
X99854900Y-53934866D01*
X99854900Y-55031134D01*
X99861655Y-55093316D01*
X99912785Y-55229705D01*
X100000139Y-55346261D01*
X100116695Y-55433615D01*
X100125103Y-55436767D01*
X100132975Y-55441077D01*
X100131767Y-55443283D01*
X100177855Y-55477905D01*
X100202555Y-55544466D01*
X100187347Y-55613815D01*
X100137061Y-55663933D01*
X100121091Y-55671227D01*
X100074546Y-55688676D01*
X100058951Y-55697214D01*
X99956876Y-55773715D01*
X99944315Y-55786276D01*
X99867814Y-55888351D01*
X99859276Y-55903946D01*
X99814122Y-56024394D01*
X99810495Y-56039649D01*
X99804969Y-56090514D01*
X99804600Y-56097328D01*
X99804600Y-56369885D01*
X99365300Y-56369885D01*
X99365300Y-51395469D01*
X100465001Y-51395469D01*
X100465371Y-51402290D01*
X100470895Y-51453152D01*
X100474521Y-51468404D01*
X100519676Y-51588854D01*
X100528214Y-51604449D01*
X100604715Y-51706524D01*
X100617276Y-51719085D01*
X100719351Y-51795586D01*
X100734946Y-51804124D01*
X100855394Y-51849278D01*
X100870649Y-51852905D01*
X100921514Y-51858431D01*
X100928328Y-51858800D01*
X101200885Y-51858800D01*
X101216124Y-51854325D01*
X101217329Y-51852935D01*
X101219000Y-51845252D01*
X101219000Y-51122915D01*
X101214525Y-51107676D01*
X101213135Y-51106471D01*
X101205452Y-51104800D01*
X100483116Y-51104800D01*
X100467877Y-51109275D01*
X100466672Y-51110665D01*
X100465001Y-51118348D01*
X100465001Y-51395469D01*
X99365300Y-51395469D01*
X99365300Y-50240700D01*
X99385302Y-50172579D01*
X99438958Y-50126086D01*
X99491300Y-50114700D01*
X100344995Y-50114700D01*
X100413116Y-50134702D01*
G37*
%TD.AperFunction*%
%TD*%
M02*
