%TF.GenerationSoftware,KiCad,Pcbnew,6.0.10-1.fc37*%
%TF.CreationDate,2023-01-09T06:29:55-08:00*%
%TF.ProjectId,data_logger_esp32c3,64617461-5f6c-46f6-9767-65725f657370,rev?*%
%TF.SameCoordinates,Original*%
%TF.FileFunction,Paste,Top*%
%TF.FilePolarity,Positive*%
%FSLAX46Y46*%
G04 Gerber Fmt 4.6, Leading zero omitted, Abs format (unit mm)*
G04 Created by KiCad (PCBNEW 6.0.10-1.fc37) date 2023-01-09 06:29:55*
%MOMM*%
%LPD*%
G01*
G04 APERTURE LIST*
G04 Aperture macros list*
%AMRoundRect*
0 Rectangle with rounded corners*
0 $1 Rounding radius*
0 $2 $3 $4 $5 $6 $7 $8 $9 X,Y pos of 4 corners*
0 Add a 4 corners polygon primitive as box body*
4,1,4,$2,$3,$4,$5,$6,$7,$8,$9,$2,$3,0*
0 Add four circle primitives for the rounded corners*
1,1,$1+$1,$2,$3*
1,1,$1+$1,$4,$5*
1,1,$1+$1,$6,$7*
1,1,$1+$1,$8,$9*
0 Add four rect primitives between the rounded corners*
20,1,$1+$1,$2,$3,$4,$5,0*
20,1,$1+$1,$4,$5,$6,$7,0*
20,1,$1+$1,$6,$7,$8,$9,0*
20,1,$1+$1,$8,$9,$2,$3,0*%
%AMFreePoly0*
4,1,6,0.725000,-0.725000,-0.725000,-0.725000,-0.725000,0.125000,-0.125000,0.725000,0.725000,0.725000,0.725000,-0.725000,0.725000,-0.725000,$1*%
G04 Aperture macros list end*
%TA.AperFunction,Profile*%
%ADD10C,0.100000*%
%TD*%
%ADD11R,0.599999X0.999998*%
%ADD12RoundRect,0.135000X0.185000X-0.135000X0.185000X0.135000X-0.185000X0.135000X-0.185000X-0.135000X0*%
%ADD13RoundRect,0.140000X-0.170000X0.140000X-0.170000X-0.140000X0.170000X-0.140000X0.170000X0.140000X0*%
%ADD14RoundRect,0.135000X-0.185000X0.135000X-0.185000X-0.135000X0.185000X-0.135000X0.185000X0.135000X0*%
%ADD15RoundRect,0.225000X0.250000X-0.225000X0.250000X0.225000X-0.250000X0.225000X-0.250000X-0.225000X0*%
%ADD16R,0.799998X1.499997*%
%ADD17R,1.450010X1.999996*%
%ADD18RoundRect,0.135000X-0.135000X-0.185000X0.135000X-0.185000X0.135000X0.185000X-0.135000X0.185000X0*%
%ADD19RoundRect,0.135000X0.135000X0.185000X-0.135000X0.185000X-0.135000X-0.185000X0.135000X-0.185000X0*%
%ADD20R,0.800000X0.400000*%
%ADD21R,0.400000X0.800000*%
%ADD22R,1.450000X1.450000*%
%ADD23FreePoly0,0.000000*%
%ADD24R,0.700000X0.700000*%
%ADD25R,0.699999X1.250010*%
%ADD26R,0.699999X0.999998*%
%ADD27R,0.980008X2.469998*%
%ADD28R,3.599993X2.469998*%
%ADD29R,0.664997X0.200000*%
%ADD30R,0.200000X0.664997*%
%ADD31R,2.699995X2.699995*%
%ADD32RoundRect,0.140000X0.170000X-0.140000X0.170000X0.140000X-0.170000X0.140000X-0.170000X-0.140000X0*%
%ADD33R,1.299997X0.299999*%
%ADD34R,1.250010X0.699999*%
G04 APERTURE END LIST*
D10*
X98856800Y-49606200D02*
X142138400Y-49606200D01*
X142138400Y-49606200D02*
X142138400Y-81864200D01*
X142138400Y-81864200D02*
X98856800Y-81864200D01*
X98856800Y-81864200D02*
X98856800Y-49606200D01*
%TO.C,U11*%
G36*
X110220976Y-70134150D02*
G01*
X109555979Y-70134150D01*
X109555979Y-69934150D01*
X110220976Y-69934150D01*
X110220976Y-70134150D01*
G37*
G36*
X110220976Y-70934250D02*
G01*
X109555979Y-70934250D01*
X109555979Y-70734250D01*
X110220976Y-70734250D01*
X110220976Y-70934250D01*
G37*
G36*
X113095926Y-72674251D02*
G01*
X112895926Y-72674251D01*
X112895926Y-72009254D01*
X113095926Y-72009254D01*
X113095926Y-72674251D01*
G37*
G36*
X114036056Y-70934250D02*
G01*
X113371059Y-70934250D01*
X113371059Y-70734250D01*
X114036056Y-70734250D01*
X114036056Y-70934250D01*
G37*
G36*
X112876038Y-71514259D02*
G01*
X110716022Y-71514259D01*
X110716022Y-69354217D01*
X112876038Y-69354217D01*
X112876038Y-71514259D01*
G37*
G36*
X110220976Y-71734096D02*
G01*
X109555979Y-71734096D01*
X109555979Y-71534096D01*
X110220976Y-71534096D01*
X110220976Y-71734096D01*
G37*
G36*
X112696130Y-68859171D02*
G01*
X112496130Y-68859171D01*
X112496130Y-68194174D01*
X112696130Y-68194174D01*
X112696130Y-68859171D01*
G37*
G36*
X114036056Y-71734096D02*
G01*
X113371059Y-71734096D01*
X113371059Y-71534096D01*
X114036056Y-71534096D01*
X114036056Y-71734096D01*
G37*
G36*
X114036056Y-71334300D02*
G01*
X113371059Y-71334300D01*
X113371059Y-71134300D01*
X114036056Y-71134300D01*
X114036056Y-71334300D01*
G37*
G36*
X111095930Y-72674251D02*
G01*
X110895930Y-72674251D01*
X110895930Y-72009254D01*
X111095930Y-72009254D01*
X111095930Y-72674251D01*
G37*
G36*
X114036056Y-70134150D02*
G01*
X113371059Y-70134150D01*
X113371059Y-69934150D01*
X114036056Y-69934150D01*
X114036056Y-70134150D01*
G37*
G36*
X110696134Y-68859171D02*
G01*
X110496134Y-68859171D01*
X110496134Y-68194174D01*
X110696134Y-68194174D01*
X110696134Y-68859171D01*
G37*
G36*
X111896030Y-68859171D02*
G01*
X111696030Y-68859171D01*
X111696030Y-68194174D01*
X111896030Y-68194174D01*
X111896030Y-68859171D01*
G37*
G36*
X112296080Y-72674251D02*
G01*
X112096080Y-72674251D01*
X112096080Y-72009254D01*
X112296080Y-72009254D01*
X112296080Y-72674251D01*
G37*
G36*
X110696134Y-72674251D02*
G01*
X110496134Y-72674251D01*
X110496134Y-72009254D01*
X110696134Y-72009254D01*
X110696134Y-72674251D01*
G37*
G36*
X114036056Y-69334304D02*
G01*
X113371059Y-69334304D01*
X113371059Y-69134304D01*
X114036056Y-69134304D01*
X114036056Y-69334304D01*
G37*
G36*
X110220976Y-69734100D02*
G01*
X109555979Y-69734100D01*
X109555979Y-69534100D01*
X110220976Y-69534100D01*
X110220976Y-69734100D01*
G37*
G36*
X111495980Y-68859171D02*
G01*
X111295980Y-68859171D01*
X111295980Y-68194174D01*
X111495980Y-68194174D01*
X111495980Y-68859171D01*
G37*
G36*
X111095930Y-68859171D02*
G01*
X110895930Y-68859171D01*
X110895930Y-68194174D01*
X111095930Y-68194174D01*
X111095930Y-68859171D01*
G37*
G36*
X112296080Y-68859171D02*
G01*
X112096080Y-68859171D01*
X112096080Y-68194174D01*
X112296080Y-68194174D01*
X112296080Y-68859171D01*
G37*
G36*
X114036056Y-70534200D02*
G01*
X113371059Y-70534200D01*
X113371059Y-70334200D01*
X114036056Y-70334200D01*
X114036056Y-70534200D01*
G37*
G36*
X110220976Y-69334304D02*
G01*
X109555979Y-69334304D01*
X109555979Y-69134304D01*
X110220976Y-69134304D01*
X110220976Y-69334304D01*
G37*
G36*
X111495980Y-72674251D02*
G01*
X111295980Y-72674251D01*
X111295980Y-72009254D01*
X111495980Y-72009254D01*
X111495980Y-72674251D01*
G37*
G36*
X111896030Y-72674251D02*
G01*
X111696030Y-72674251D01*
X111696030Y-72009254D01*
X111896030Y-72009254D01*
X111896030Y-72674251D01*
G37*
G36*
X113095926Y-68859171D02*
G01*
X112895926Y-68859171D01*
X112895926Y-68194174D01*
X113095926Y-68194174D01*
X113095926Y-68859171D01*
G37*
G36*
X110220976Y-70534200D02*
G01*
X109555979Y-70534200D01*
X109555979Y-70334200D01*
X110220976Y-70334200D01*
X110220976Y-70534200D01*
G37*
G36*
X112696130Y-72674251D02*
G01*
X112496130Y-72674251D01*
X112496130Y-72009254D01*
X112696130Y-72009254D01*
X112696130Y-72674251D01*
G37*
G36*
X110220976Y-71334300D02*
G01*
X109555979Y-71334300D01*
X109555979Y-71134300D01*
X110220976Y-71134300D01*
X110220976Y-71334300D01*
G37*
G36*
X114036056Y-69734100D02*
G01*
X113371059Y-69734100D01*
X113371059Y-69534100D01*
X114036056Y-69534100D01*
X114036056Y-69734100D01*
G37*
%TO.C,USB-C1*%
G36*
X135391525Y-73728250D02*
G01*
X135421370Y-73730485D01*
X135451063Y-73734219D01*
X135480527Y-73739400D01*
X135509686Y-73746055D01*
X135538489Y-73754158D01*
X135566836Y-73763708D01*
X135594700Y-73774630D01*
X135621954Y-73786924D01*
X135648573Y-73800589D01*
X135674481Y-73815550D01*
X135699627Y-73831780D01*
X135723909Y-73849230D01*
X135747303Y-73867874D01*
X135769731Y-73887686D01*
X135791143Y-73908564D01*
X135811489Y-73930510D01*
X135830716Y-73953421D01*
X135848801Y-73977271D01*
X135865641Y-74001986D01*
X135881237Y-74027513D01*
X135895563Y-74053776D01*
X135908542Y-74080751D01*
X135920150Y-74108310D01*
X135930386Y-74136428D01*
X135939200Y-74165003D01*
X135946591Y-74194010D01*
X135952509Y-74223321D01*
X135956980Y-74252912D01*
X135959952Y-74282681D01*
X135961450Y-74312551D01*
X135961450Y-74342473D01*
X135959952Y-74372343D01*
X135956980Y-74402112D01*
X135952509Y-74431703D01*
X135946591Y-74461014D01*
X135939200Y-74490021D01*
X135930386Y-74518596D01*
X135920150Y-74546714D01*
X135908542Y-74574273D01*
X135895563Y-74601248D01*
X135881237Y-74627511D01*
X135865641Y-74653038D01*
X135848801Y-74677753D01*
X135830716Y-74701603D01*
X135811489Y-74724514D01*
X135791143Y-74746460D01*
X135769731Y-74767338D01*
X135747303Y-74787150D01*
X135723909Y-74805794D01*
X135699627Y-74823244D01*
X135674481Y-74839474D01*
X135648573Y-74854435D01*
X135621954Y-74868100D01*
X135594700Y-74880394D01*
X135566836Y-74891316D01*
X135538489Y-74900866D01*
X135509686Y-74908969D01*
X135480527Y-74915624D01*
X135451063Y-74920805D01*
X135421370Y-74924539D01*
X135391525Y-74926774D01*
X135361629Y-74927511D01*
X134561631Y-74927511D01*
X134531735Y-74926774D01*
X134501890Y-74924539D01*
X134472197Y-74920805D01*
X134442733Y-74915624D01*
X134413574Y-74908969D01*
X134384771Y-74900866D01*
X134356424Y-74891316D01*
X134328560Y-74880394D01*
X134301306Y-74868100D01*
X134274687Y-74854435D01*
X134248779Y-74839474D01*
X134223633Y-74823244D01*
X134199351Y-74805794D01*
X134175957Y-74787150D01*
X134153529Y-74767338D01*
X134132117Y-74746460D01*
X134111771Y-74724514D01*
X134092544Y-74701603D01*
X134074459Y-74677753D01*
X134057619Y-74653038D01*
X134042023Y-74627511D01*
X134027697Y-74601248D01*
X134014718Y-74574273D01*
X134003110Y-74546714D01*
X133992874Y-74518596D01*
X133984060Y-74490021D01*
X133976669Y-74461014D01*
X133970751Y-74431703D01*
X133966280Y-74402112D01*
X133963308Y-74372343D01*
X133961810Y-74342473D01*
X133961810Y-74312551D01*
X133963308Y-74282681D01*
X133966280Y-74252912D01*
X133970751Y-74223321D01*
X133976669Y-74194010D01*
X133984060Y-74165003D01*
X133992874Y-74136428D01*
X134003110Y-74108310D01*
X134014718Y-74080751D01*
X134027697Y-74053776D01*
X134042023Y-74027513D01*
X134057619Y-74001986D01*
X134074459Y-73977271D01*
X134092544Y-73953421D01*
X134111771Y-73930510D01*
X134132117Y-73908564D01*
X134153529Y-73887686D01*
X134175957Y-73867874D01*
X134199351Y-73849230D01*
X134223633Y-73831780D01*
X134248779Y-73815550D01*
X134274687Y-73800589D01*
X134301306Y-73786924D01*
X134328560Y-73774630D01*
X134356424Y-73763708D01*
X134384771Y-73754158D01*
X134413574Y-73746055D01*
X134442733Y-73739400D01*
X134472197Y-73734219D01*
X134501890Y-73730485D01*
X134531735Y-73728250D01*
X134561631Y-73727513D01*
X135361629Y-73727513D01*
X135391525Y-73728250D01*
G37*
G36*
X134843241Y-68402327D02*
G01*
X133543218Y-68402327D01*
X133543218Y-68102328D01*
X134843241Y-68102328D01*
X134843241Y-68402327D01*
G37*
G36*
X134843241Y-68902707D02*
G01*
X133543218Y-68902707D01*
X133543218Y-68602708D01*
X134843241Y-68602708D01*
X134843241Y-68902707D01*
G37*
G36*
X135391525Y-65078026D02*
G01*
X135421370Y-65080261D01*
X135451063Y-65083995D01*
X135480527Y-65089176D01*
X135509686Y-65095831D01*
X135538489Y-65103934D01*
X135566836Y-65113484D01*
X135594700Y-65124406D01*
X135621954Y-65136700D01*
X135648573Y-65150365D01*
X135674481Y-65165326D01*
X135699627Y-65181556D01*
X135723909Y-65199006D01*
X135747303Y-65217650D01*
X135769731Y-65237462D01*
X135791143Y-65258340D01*
X135811489Y-65280286D01*
X135830716Y-65303197D01*
X135848801Y-65327047D01*
X135865641Y-65351762D01*
X135881237Y-65377289D01*
X135895563Y-65403552D01*
X135908542Y-65430527D01*
X135920150Y-65458086D01*
X135930386Y-65486204D01*
X135939200Y-65514779D01*
X135946591Y-65543786D01*
X135952509Y-65573097D01*
X135956980Y-65602688D01*
X135959952Y-65632457D01*
X135961450Y-65662327D01*
X135961450Y-65692249D01*
X135959952Y-65722119D01*
X135956980Y-65751888D01*
X135952509Y-65781479D01*
X135946591Y-65810790D01*
X135939200Y-65839797D01*
X135930386Y-65868372D01*
X135920150Y-65896490D01*
X135908542Y-65924049D01*
X135895563Y-65951024D01*
X135881237Y-65977287D01*
X135865641Y-66002814D01*
X135848801Y-66027529D01*
X135830716Y-66051379D01*
X135811489Y-66074290D01*
X135791143Y-66096236D01*
X135769731Y-66117114D01*
X135747303Y-66136926D01*
X135723909Y-66155570D01*
X135699627Y-66173020D01*
X135674481Y-66189250D01*
X135648573Y-66204211D01*
X135621954Y-66217876D01*
X135594700Y-66230170D01*
X135566836Y-66241092D01*
X135538489Y-66250642D01*
X135509686Y-66258745D01*
X135480527Y-66265400D01*
X135451063Y-66270581D01*
X135421370Y-66274315D01*
X135391525Y-66276550D01*
X135361629Y-66277287D01*
X134561631Y-66277287D01*
X134531735Y-66276550D01*
X134501890Y-66274315D01*
X134472197Y-66270581D01*
X134442733Y-66265400D01*
X134413574Y-66258745D01*
X134384771Y-66250642D01*
X134356424Y-66241092D01*
X134328560Y-66230170D01*
X134301306Y-66217876D01*
X134274687Y-66204211D01*
X134248779Y-66189250D01*
X134223633Y-66173020D01*
X134199351Y-66155570D01*
X134175957Y-66136926D01*
X134153529Y-66117114D01*
X134132117Y-66096236D01*
X134111771Y-66074290D01*
X134092544Y-66051379D01*
X134074459Y-66027529D01*
X134057619Y-66002814D01*
X134042023Y-65977287D01*
X134027697Y-65951024D01*
X134014718Y-65924049D01*
X134003110Y-65896490D01*
X133992874Y-65868372D01*
X133984060Y-65839797D01*
X133976669Y-65810790D01*
X133970751Y-65781479D01*
X133966280Y-65751888D01*
X133963308Y-65722119D01*
X133961810Y-65692249D01*
X133961810Y-65662327D01*
X133963308Y-65632457D01*
X133966280Y-65602688D01*
X133970751Y-65573097D01*
X133976669Y-65543786D01*
X133984060Y-65514779D01*
X133992874Y-65486204D01*
X134003110Y-65458086D01*
X134014718Y-65430527D01*
X134027697Y-65403552D01*
X134042023Y-65377289D01*
X134057619Y-65351762D01*
X134074459Y-65327047D01*
X134092544Y-65303197D01*
X134111771Y-65280286D01*
X134132117Y-65258340D01*
X134153529Y-65237462D01*
X134175957Y-65217650D01*
X134199351Y-65199006D01*
X134223633Y-65181556D01*
X134248779Y-65165326D01*
X134274687Y-65150365D01*
X134301306Y-65136700D01*
X134328560Y-65124406D01*
X134356424Y-65113484D01*
X134384771Y-65103934D01*
X134413574Y-65095831D01*
X134442733Y-65089176D01*
X134472197Y-65083995D01*
X134501890Y-65080261D01*
X134531735Y-65078026D01*
X134561631Y-65077289D01*
X135361629Y-65077289D01*
X135391525Y-65078026D01*
G37*
G36*
X134843241Y-69402325D02*
G01*
X133543218Y-69402325D01*
X133543218Y-69102326D01*
X134843241Y-69102326D01*
X134843241Y-69402325D01*
G37*
G36*
X134843241Y-71402321D02*
G01*
X133543218Y-71402321D01*
X133543218Y-71102322D01*
X134843241Y-71102322D01*
X134843241Y-71402321D01*
G37*
G36*
X134843241Y-70402323D02*
G01*
X133543218Y-70402323D01*
X133543218Y-70102324D01*
X134843241Y-70102324D01*
X134843241Y-70402323D01*
G37*
G36*
X134843317Y-72402319D02*
G01*
X134843342Y-72402319D01*
X134843342Y-72702344D01*
X133543370Y-72702344D01*
X133543370Y-72402395D01*
X133543345Y-72402395D01*
X133543345Y-72102370D01*
X134843317Y-72102370D01*
X134843317Y-72402319D01*
G37*
G36*
X134843215Y-69902451D02*
G01*
X133543192Y-69902451D01*
X133543192Y-69602452D01*
X134843215Y-69602452D01*
X134843215Y-69902451D01*
G37*
G36*
X134843164Y-67102406D02*
G01*
X133543192Y-67102406D01*
X133543192Y-66502382D01*
X134843164Y-66502382D01*
X134843164Y-67102406D01*
G37*
G36*
X139491415Y-65078026D02*
G01*
X139521260Y-65080261D01*
X139550953Y-65083995D01*
X139580417Y-65089176D01*
X139609576Y-65095831D01*
X139638380Y-65103934D01*
X139666726Y-65113484D01*
X139694590Y-65124406D01*
X139721844Y-65136700D01*
X139748463Y-65150365D01*
X139774371Y-65165326D01*
X139799517Y-65181556D01*
X139823800Y-65199006D01*
X139847193Y-65217650D01*
X139869621Y-65237462D01*
X139891033Y-65258340D01*
X139911379Y-65280286D01*
X139930607Y-65303197D01*
X139948691Y-65327047D01*
X139965532Y-65351762D01*
X139981127Y-65377289D01*
X139995453Y-65403552D01*
X140008432Y-65430527D01*
X140020040Y-65458086D01*
X140030276Y-65486204D01*
X140039090Y-65514779D01*
X140046481Y-65543786D01*
X140052400Y-65573097D01*
X140056870Y-65602688D01*
X140059842Y-65632457D01*
X140061340Y-65662327D01*
X140061340Y-65692249D01*
X140059842Y-65722119D01*
X140056870Y-65751888D01*
X140052400Y-65781479D01*
X140046481Y-65810790D01*
X140039090Y-65839797D01*
X140030276Y-65868372D01*
X140020040Y-65896490D01*
X140008432Y-65924049D01*
X139995453Y-65951024D01*
X139981127Y-65977287D01*
X139965532Y-66002814D01*
X139948691Y-66027529D01*
X139930607Y-66051379D01*
X139911379Y-66074290D01*
X139891033Y-66096236D01*
X139869621Y-66117114D01*
X139847193Y-66136926D01*
X139823800Y-66155570D01*
X139799517Y-66173020D01*
X139774371Y-66189250D01*
X139748463Y-66204211D01*
X139721844Y-66217876D01*
X139694590Y-66230170D01*
X139666726Y-66241092D01*
X139638380Y-66250642D01*
X139609576Y-66258745D01*
X139580417Y-66265400D01*
X139550953Y-66270581D01*
X139521260Y-66274315D01*
X139491415Y-66276550D01*
X139461519Y-66277287D01*
X138861521Y-66277287D01*
X138831625Y-66276550D01*
X138801780Y-66274315D01*
X138772087Y-66270581D01*
X138742623Y-66265400D01*
X138713464Y-66258745D01*
X138684660Y-66250642D01*
X138656314Y-66241092D01*
X138628450Y-66230170D01*
X138601196Y-66217876D01*
X138574577Y-66204211D01*
X138548669Y-66189250D01*
X138523523Y-66173020D01*
X138499240Y-66155570D01*
X138475847Y-66136926D01*
X138453419Y-66117114D01*
X138432007Y-66096236D01*
X138411661Y-66074290D01*
X138392433Y-66051379D01*
X138374349Y-66027529D01*
X138357508Y-66002814D01*
X138341913Y-65977287D01*
X138327587Y-65951024D01*
X138314608Y-65924049D01*
X138303000Y-65896490D01*
X138292764Y-65868372D01*
X138283950Y-65839797D01*
X138276559Y-65810790D01*
X138270640Y-65781479D01*
X138266170Y-65751888D01*
X138263198Y-65722119D01*
X138261700Y-65692249D01*
X138261700Y-65662327D01*
X138263198Y-65632457D01*
X138266170Y-65602688D01*
X138270640Y-65573097D01*
X138276559Y-65543786D01*
X138283950Y-65514779D01*
X138292764Y-65486204D01*
X138303000Y-65458086D01*
X138314608Y-65430527D01*
X138327587Y-65403552D01*
X138341913Y-65377289D01*
X138357508Y-65351762D01*
X138374349Y-65327047D01*
X138392433Y-65303197D01*
X138411661Y-65280286D01*
X138432007Y-65258340D01*
X138453419Y-65237462D01*
X138475847Y-65217650D01*
X138499240Y-65199006D01*
X138523523Y-65181556D01*
X138548669Y-65165326D01*
X138574577Y-65150365D01*
X138601196Y-65136700D01*
X138628450Y-65124406D01*
X138656314Y-65113484D01*
X138684660Y-65103934D01*
X138713464Y-65095831D01*
X138742623Y-65089176D01*
X138772087Y-65083995D01*
X138801780Y-65080261D01*
X138831625Y-65078026D01*
X138861521Y-65077289D01*
X139461519Y-65077289D01*
X139491415Y-65078026D01*
G37*
G36*
X134843164Y-67902252D02*
G01*
X133543192Y-67902252D01*
X133543192Y-67302228D01*
X134843164Y-67302228D01*
X134843164Y-67902252D01*
G37*
G36*
X139491415Y-73728250D02*
G01*
X139521260Y-73730485D01*
X139550953Y-73734219D01*
X139580417Y-73739400D01*
X139609576Y-73746055D01*
X139638380Y-73754158D01*
X139666726Y-73763708D01*
X139694590Y-73774630D01*
X139721844Y-73786924D01*
X139748463Y-73800589D01*
X139774371Y-73815550D01*
X139799517Y-73831780D01*
X139823800Y-73849230D01*
X139847193Y-73867874D01*
X139869621Y-73887686D01*
X139891033Y-73908564D01*
X139911379Y-73930510D01*
X139930607Y-73953421D01*
X139948691Y-73977271D01*
X139965532Y-74001986D01*
X139981127Y-74027513D01*
X139995453Y-74053776D01*
X140008432Y-74080751D01*
X140020040Y-74108310D01*
X140030276Y-74136428D01*
X140039090Y-74165003D01*
X140046481Y-74194010D01*
X140052400Y-74223321D01*
X140056870Y-74252912D01*
X140059842Y-74282681D01*
X140061340Y-74312551D01*
X140061340Y-74342473D01*
X140059842Y-74372343D01*
X140056870Y-74402112D01*
X140052400Y-74431703D01*
X140046481Y-74461014D01*
X140039090Y-74490021D01*
X140030276Y-74518596D01*
X140020040Y-74546714D01*
X140008432Y-74574273D01*
X139995453Y-74601248D01*
X139981127Y-74627511D01*
X139965532Y-74653038D01*
X139948691Y-74677753D01*
X139930607Y-74701603D01*
X139911379Y-74724514D01*
X139891033Y-74746460D01*
X139869621Y-74767338D01*
X139847193Y-74787150D01*
X139823800Y-74805794D01*
X139799517Y-74823244D01*
X139774371Y-74839474D01*
X139748463Y-74854435D01*
X139721844Y-74868100D01*
X139694590Y-74880394D01*
X139666726Y-74891316D01*
X139638380Y-74900866D01*
X139609576Y-74908969D01*
X139580417Y-74915624D01*
X139550953Y-74920805D01*
X139521260Y-74924539D01*
X139491415Y-74926774D01*
X139461519Y-74927511D01*
X138861521Y-74927511D01*
X138831625Y-74926774D01*
X138801780Y-74924539D01*
X138772087Y-74920805D01*
X138742623Y-74915624D01*
X138713464Y-74908969D01*
X138684660Y-74900866D01*
X138656314Y-74891316D01*
X138628450Y-74880394D01*
X138601196Y-74868100D01*
X138574577Y-74854435D01*
X138548669Y-74839474D01*
X138523523Y-74823244D01*
X138499240Y-74805794D01*
X138475847Y-74787150D01*
X138453419Y-74767338D01*
X138432007Y-74746460D01*
X138411661Y-74724514D01*
X138392433Y-74701603D01*
X138374349Y-74677753D01*
X138357508Y-74653038D01*
X138341913Y-74627511D01*
X138327587Y-74601248D01*
X138314608Y-74574273D01*
X138303000Y-74546714D01*
X138292764Y-74518596D01*
X138283950Y-74490021D01*
X138276559Y-74461014D01*
X138270640Y-74431703D01*
X138266170Y-74402112D01*
X138263198Y-74372343D01*
X138261700Y-74342473D01*
X138261700Y-74312551D01*
X138263198Y-74282681D01*
X138266170Y-74252912D01*
X138270640Y-74223321D01*
X138276559Y-74194010D01*
X138283950Y-74165003D01*
X138292764Y-74136428D01*
X138303000Y-74108310D01*
X138314608Y-74080751D01*
X138327587Y-74053776D01*
X138341913Y-74027513D01*
X138357508Y-74001986D01*
X138374349Y-73977271D01*
X138392433Y-73953421D01*
X138411661Y-73930510D01*
X138432007Y-73908564D01*
X138453419Y-73887686D01*
X138475847Y-73867874D01*
X138499240Y-73849230D01*
X138523523Y-73831780D01*
X138548669Y-73815550D01*
X138574577Y-73800589D01*
X138601196Y-73786924D01*
X138628450Y-73774630D01*
X138656314Y-73763708D01*
X138684660Y-73754158D01*
X138713464Y-73746055D01*
X138742623Y-73739400D01*
X138772087Y-73734219D01*
X138801780Y-73730485D01*
X138831625Y-73728250D01*
X138861521Y-73727513D01*
X139461519Y-73727513D01*
X139491415Y-73728250D01*
G37*
G36*
X134843215Y-70902449D02*
G01*
X133543192Y-70902449D01*
X133543192Y-70602450D01*
X134843215Y-70602450D01*
X134843215Y-70902449D01*
G37*
G36*
X134843215Y-73202343D02*
G01*
X134843368Y-73202343D01*
X134843368Y-73502342D01*
X133543345Y-73502342D01*
X133543345Y-73202368D01*
X133543192Y-73202368D01*
X133543192Y-72902369D01*
X134843215Y-72902369D01*
X134843215Y-73202343D01*
G37*
G36*
X134843241Y-71902447D02*
G01*
X133543218Y-71902447D01*
X133543218Y-71602448D01*
X134843241Y-71602448D01*
X134843241Y-71902447D01*
G37*
%TD*%
D11*
%TO.C,U5*%
X106923853Y-52637018D03*
X107873813Y-52637018D03*
X108823773Y-52637018D03*
X108823773Y-50436870D03*
X106923853Y-50436870D03*
%TD*%
D12*
%TO.C,R4*%
X109220000Y-63324200D03*
X109220000Y-62304200D03*
%TD*%
D13*
%TO.C,C1*%
X108026200Y-62334200D03*
X108026200Y-63294200D03*
%TD*%
D11*
%TO.C,U4*%
X104053653Y-61349218D03*
X105003613Y-61349218D03*
X105953573Y-61349218D03*
X105953573Y-59149070D03*
X104053653Y-59149070D03*
%TD*%
D14*
%TO.C,R2*%
X131902200Y-70508400D03*
X131902200Y-71528400D03*
%TD*%
D15*
%TO.C,C2*%
X107873800Y-57544000D03*
X107873800Y-55994000D03*
%TD*%
D11*
%TO.C,U8*%
X103469453Y-71077418D03*
X104419413Y-71077418D03*
X105369373Y-71077418D03*
X105369373Y-68877270D03*
X103469453Y-68877270D03*
%TD*%
D12*
%TO.C,R1*%
X126415800Y-57456800D03*
X126415800Y-56436800D03*
%TD*%
D16*
%TO.C,SD1*%
X130911981Y-55142213D03*
X132012055Y-55142213D03*
X133112129Y-55142213D03*
X134211949Y-55142213D03*
X135312023Y-55142213D03*
X136412097Y-55142213D03*
X137511917Y-55142213D03*
X138611991Y-55142213D03*
D17*
X127232029Y-60841973D03*
X140991971Y-60841973D03*
X140991971Y-52542015D03*
X127232029Y-52542015D03*
%TD*%
D14*
%TO.C,R12*%
X103378000Y-63853600D03*
X103378000Y-64873600D03*
%TD*%
D18*
%TO.C,R18*%
X124102400Y-64363600D03*
X125122400Y-64363600D03*
%TD*%
D14*
%TO.C,R6*%
X103378000Y-65911000D03*
X103378000Y-66931000D03*
%TD*%
D19*
%TO.C,R16*%
X120347200Y-78079600D03*
X119327200Y-78079600D03*
%TD*%
D14*
%TO.C,R5*%
X102565200Y-56106600D03*
X102565200Y-57126600D03*
%TD*%
D18*
%TO.C,R17*%
X124077000Y-63271400D03*
X125097000Y-63271400D03*
%TD*%
D20*
%TO.C,U1*%
X110762200Y-56891400D03*
X110762200Y-57691400D03*
X110762200Y-58491400D03*
X110762200Y-59291400D03*
X110762200Y-60091400D03*
X110762200Y-60891400D03*
X110762200Y-61691400D03*
X110762200Y-62491400D03*
X110762200Y-63291400D03*
X110762200Y-64091400D03*
X110762200Y-64891400D03*
D21*
X111862200Y-65791400D03*
X112662200Y-65791400D03*
X113462200Y-65791400D03*
X114262200Y-65791400D03*
X115062200Y-65791400D03*
X115862200Y-65791400D03*
X116662200Y-65791400D03*
X117462200Y-65791400D03*
X118262200Y-65791400D03*
X119062200Y-65791400D03*
X119862200Y-65791400D03*
X120662200Y-65791400D03*
X121462200Y-65791400D03*
D20*
X122562200Y-64891400D03*
X122562200Y-64091400D03*
X122562200Y-63291400D03*
X122562200Y-62491400D03*
X122562200Y-61691400D03*
X122562200Y-60891400D03*
X122562200Y-60091400D03*
X122562200Y-59291400D03*
X122562200Y-58491400D03*
X122562200Y-57691400D03*
X122562200Y-56891400D03*
D21*
X121462200Y-55991400D03*
X120662200Y-55991400D03*
X119862200Y-55991400D03*
X119062200Y-55991400D03*
X118262200Y-55991400D03*
X117462200Y-55991400D03*
X116662200Y-55991400D03*
X115862200Y-55991400D03*
X115062200Y-55991400D03*
X114262200Y-55991400D03*
X113462200Y-55991400D03*
X112662200Y-55991400D03*
X111862200Y-55991400D03*
D22*
X118637200Y-58916400D03*
X116662200Y-62866400D03*
X116662200Y-58916400D03*
X118637200Y-60891400D03*
X114687200Y-62866400D03*
D23*
X114687200Y-58916400D03*
D22*
X118637200Y-62866400D03*
X114687200Y-60891400D03*
X116662200Y-60891400D03*
D24*
X122612200Y-55941400D03*
X122612200Y-65841400D03*
X110712200Y-65841400D03*
X110712200Y-55941400D03*
%TD*%
D14*
%TO.C,R11*%
X102539800Y-54074600D03*
X102539800Y-55094600D03*
%TD*%
D15*
%TO.C,C5*%
X129006600Y-75603400D03*
X129006600Y-74053400D03*
%TD*%
D14*
%TO.C,R10*%
X105435400Y-50366200D03*
X105435400Y-51386200D03*
%TD*%
D25*
%TO.C,U9*%
X132953760Y-76438436D03*
X131053840Y-76438436D03*
X132003800Y-78438432D03*
%TD*%
D18*
%TO.C,R15*%
X117015800Y-73914000D03*
X118035800Y-73914000D03*
%TD*%
D11*
%TO.C,U6*%
X104002853Y-56980418D03*
X104952813Y-56980418D03*
X105902773Y-56980418D03*
X105902773Y-54780270D03*
X104002853Y-54780270D03*
%TD*%
D19*
%TO.C,R8*%
X118112000Y-78028800D03*
X117092000Y-78028800D03*
%TD*%
D26*
%TO.C,D1*%
X138449304Y-77495400D03*
X139649200Y-77495400D03*
%TD*%
D11*
%TO.C,U7*%
X104714053Y-66480018D03*
X105664013Y-66480018D03*
X106613973Y-66480018D03*
X106613973Y-64279870D03*
X104714053Y-64279870D03*
%TD*%
D27*
%TO.C,U2*%
X126886970Y-72892406D03*
X124587000Y-72892406D03*
X122287030Y-72892406D03*
D28*
X124587000Y-78562194D03*
%TD*%
D29*
%TO.C,U11*%
X110106460Y-69234304D03*
X110106460Y-69634100D03*
X110106460Y-70034150D03*
X110106460Y-70434200D03*
X110106460Y-70834250D03*
X110106460Y-71234300D03*
X110106460Y-71634096D03*
D30*
X110814104Y-72341740D03*
X111213900Y-72341740D03*
X111613950Y-72341740D03*
X112014000Y-72341740D03*
X112414050Y-72341740D03*
X112814100Y-72341740D03*
X113213896Y-72341740D03*
D29*
X113921540Y-71634096D03*
X113921540Y-71234300D03*
X113921540Y-70834250D03*
X113921540Y-70434200D03*
X113921540Y-70034150D03*
X113921540Y-69634100D03*
X113921540Y-69234304D03*
D30*
X113213896Y-68526660D03*
X112814100Y-68526660D03*
X112414050Y-68526660D03*
X112014000Y-68526660D03*
X111613950Y-68526660D03*
X111213900Y-68526660D03*
X110814104Y-68526660D03*
D31*
X112014000Y-70434200D03*
%TD*%
D32*
%TO.C,C3*%
X109220000Y-57782400D03*
X109220000Y-56822400D03*
%TD*%
D14*
%TO.C,R3*%
X126441200Y-54404800D03*
X126441200Y-55424800D03*
%TD*%
D18*
%TO.C,R14*%
X119200200Y-73888600D03*
X120220200Y-73888600D03*
%TD*%
D15*
%TO.C,C4*%
X125552200Y-69939200D03*
X125552200Y-68389200D03*
%TD*%
D33*
%TO.C,USB-C1*%
X134193280Y-73352406D03*
X134193280Y-72552306D03*
X134193280Y-71252334D03*
X134193280Y-70252336D03*
X134193280Y-69752464D03*
X134193280Y-68752720D03*
X134193280Y-67452240D03*
X134193280Y-66652394D03*
X134193280Y-66952368D03*
X134193280Y-67752468D03*
X134193280Y-68252340D03*
X134193280Y-69252338D03*
X134193280Y-70752462D03*
X134193280Y-71752460D03*
X134193280Y-72252332D03*
X134193280Y-73052432D03*
%TD*%
D34*
%TO.C,U10*%
X128610036Y-69103240D03*
X128610036Y-71003160D03*
X130610032Y-70053200D03*
%TD*%
D14*
%TO.C,R9*%
X127000000Y-69162200D03*
X127000000Y-70182200D03*
%TD*%
%TO.C,R13*%
X105435400Y-52398200D03*
X105435400Y-53418200D03*
%TD*%
D32*
%TO.C,C7*%
X108508800Y-70761800D03*
X108508800Y-69801800D03*
%TD*%
D14*
%TO.C,R7*%
X132740400Y-65834800D03*
X132740400Y-66854800D03*
%TD*%
D13*
%TO.C,C6*%
X115493800Y-70182800D03*
X115493800Y-71142800D03*
%TD*%
M02*
